<?xml version="1.0" encoding="UTF-8"?><svg xmlns="http://www.w3.org/2000/svg" width="1920" height="1080" xmlns:xlink="http://www.w3.org/1999/xlink" viewBox="0 0 1920 1080"><defs><style>.e{fill:#ff894d;}.e,.f,.g{isolation:isolate;}.f{fill:#fe58c8;}.g{fill:#ff0f55;}.h{clip-path:url(#c);}.i{opacity:.12;}.j{fill:none;}</style><clipPath id="c"><rect class="j" width="1920" height="1080"/></clipPath></defs><g id="a"/><g id="b"><g class="i"><g class="h"><g><path class="f" d="M1982.2649-258.6779c-49.7845,90.4067-99.5961,181.3471-156.4938,267.5457-24.8915,37.7098-51.5327,79.1726-87.5847,107.4087-43.9187,34.3974-79.2905,9.481-114.2399-23.511-43.3971-40.9666-86.6415-83.284-141.4678-108.91-129.8127-60.6748-248.838-132.4021-363.8727-218.0366-92.5518-68.8976-180.8806-144.7725-278.3704-206.7701-61.899-39.364-142.9391-84.2505-218.0016-55.9487-98.8511,37.2711-133.8213,161.196-160.6143,251.2805-29.7902,100.1616-48.9454,206.7636-89.9071,303.1946-10.1029,23.784-23.5013,52.5774-47.8382,64.8875-25.9609,13.1315-54.8789-.0656-77.3666-14.276C196.3997,76.5226,154.8373,29.9917,115.3645-13.5205,39.2882-97.382-31.4399-186.102-102.039-274.561c1.8861-33.0932,4.043-66.2766,4.039-99.439C-27.9545-294.4972,40.9893-214.0333,111.0192-134.5188,151.1444-88.959,191.1854-41.5308,237.5386-2.0541c18.3119,15.5953,44.5335,38.2877,70.8211,34.0838,23.0899-3.6926,36.1389-27.7562,45.2305-46.8439,17.7895-37.3484,28.6824-78.1918,40.0833-117.8091,17.916-62.2573,34.8808-124.7801,53.2721-186.902,24.5415-82.8961,46.2764-219.2335,145.022-248.189,78.088-22.8979,166.292,26.525,232.0328,63.0094,108.9807,60.4813,211.6433,131.8102,319.028,195.0251,127.8318,75.2517,260.4961,139.2822,403.4689,180.011,57.8822,16.489,91.6453,63.5071,118.104,114.7145,12.8297,24.8301,39.2986,110.4267,80.4478,84.1935,34.576-22.0427,55.6155-74.1374,73.1027-108.7934,55.1622-109.3199,100.2699-223.9216,145.8485-337.4456,.3488,39.561,10.4473,79.8,18.2649,118.3221Z"/><path class="e" d="M2058.6316,77.9176c-111.0034,62.8273-218.6971,138.5379-336.5731,188.2313-67.9718,28.6551-137.8247,37.6242-207.7246,10.088-84.35-33.2288-147.1544-97.8093-216.7815-152.991-51.4806-40.8-102.5942-80.1428-149.7535-126.1377-41.9705-40.9343-81.4585-84.2998-119.8309-128.6002-59.2459-68.3982-114.4037-145.6006-185.5291-202.4533-48.7903-38.9996-104.478-54.4006-158.1531-15.0334-37.1351,27.2361-64.7878,67.0505-88.9252,105.6097-33.9841,54.2892-59.3883,109.8984-79.319,170.6148-34.1681,104.0891-56.73,212.5278-97.2196,314.4679-25.909,65.2308-69.9552,147.1649-153.3459,126.2189-59.5753-14.9641-110.2621-62.6474-152.6353-104.4829C25.8696,177.5823-47.911,78.6034-119.6233-19.979c3.955-54.1274,7.9058-108.2549,11.6436-162.3978C-37.3461-89.9571,34.1948,2.5431,114.025,87.31c40.0844,42.5632,84.1205,89.0593,137.3696,115.2195,26.6569,13.096,57.1267,19.1149,83.3637,1.9062,26.7058-17.5162,41.7684-50.3975,53.4739-78.8459,40.5982-98.6674,60.8915-205.7841,92.0794-307.597,28.4502-92.8757,70.7729-213.8346,166.0128-259.3963,67.842-32.4549,139.3705,3.7125,195.7693,42.7166,87.6833,60.6398,163.8647,137.4908,243.9642,207.4233,49.116,42.8817,99.313,84.5757,151.8008,123.2891,57.0085,42.0477,117.1036,76.6675,177.8643,112.7129,59.0542,35.0331,109.0748,83.8445,167.2662,120.2698,49.5055,30.9884,97.4503,37.56,148.3495,5.1631,40.5311-25.7979,74.2991-62.1999,106.1741-97.6821,60.5529-67.4054,115.9102-139.4752,171.1349-211.2383,16.5443,72.2493,33.5125,144.4007,49.984,216.6668Z"/><path class="g" d="M2124.262,412.6179c-75.3008-27.6426-153.2645-43.377-233.6927-40.9243-61.7523,1.8831-122.2899,14.3071-181.9672,29.5467-95.6368,24.4224-193.9033,56.9069-293.3455,35.1096-118.4327-25.9599-206.6766-116.5379-283.1195-204.6787-74.651-86.0748-133.6141-180.712-181.9609-283.7435-17.6788-37.6752-33.8792-76.0165-51.4144-113.7548-11.7136-25.2092-23.6762-52.6341-42.2214-73.7426-37.8565-43.0889-79.3354-2.0136-106.7856,31.5494-35.6846,43.631-64.8637,92.8245-93.3553,141.293-32.637,55.5203-65.7064,110.6284-87.9389,171.2504-38.6629,105.4229-62.6686,215.6439-102.6427,320.6524-30.3245,79.6596-80.5695,198.8706-181.5209,201.7963-63.8817,1.8514-122.4409-41.5923-167.9952-81.5409C15.6176,457.1365-62.7746,344.1185-137.1113,233.8048c2.8829-48.7984,6.2444-97.5652,9.7023-146.3258C-54.1723,191.0475,21.9741,295.7991,115.0912,382.7101c42.9721,40.1081,96.5228,85.62,157.2073,93.6264,92.5364,12.2088,139.7145-88.1319,167.4409-159.4907,39.7081-102.196,63.2505-209.8856,98.7994-313.5001,20.9445-61.047,49.2432-117.0532,82.3655-172.4451,25.4688-42.5925,53.0057-86.5212,89.5623-120.642,43.1721-40.2956,89.7377-44.1907,134.178-4.0867,59.393,53.5977,100.0179,129.6389,145.2697,194.663,31.7991,45.6933,64.8929,90.5192,100.7693,133.1131,41.4894,49.2579,87.7717,91.703,134.3097,135.895,72.2574,68.6149,144.7876,141.3412,241.9027,173.268,83.8641,27.5705,168.2139,10.701,249.95-15.8169,123.9872-40.2255,243.8462-85.0908,373.3243-105.7489,13.1406,63.3608,25.5557,126.9056,34.0918,191.0727Z"/><path class="f" d="M2110.3469,567.1788c-75.9277-56.8255-160.4957-105.1592-255.9062-117.9578-62.0155-8.3189-124.0658-.0308-183.8328,17.2895-97.4081,28.2286-194.2228,85.4192-298.7584,76.2491-119.5557-10.4877-210.198-109.7517-277.0894-200.4095-69.3037-93.927-122.6598-198.3365-163.5456-307.4518-13.2303-35.3087-24.8954-71.1681-37.9191-106.5476-7.0982-19.2827-14.152-43.2666-28.6121-58.5992-32.9203-34.9067-77.7639,39.1857-92.8865,60.3542-34.5746,48.3971-65.8116,99.2218-97.1915,149.7151-31.4749,50.6462-67.3231,100.2493-89.5533,155.8833-41.8528,104.7418-65.8619,215.8448-106.6247,321.0909-33.0119,85.234-86.3209,214.1891-191.4151,226.9523-65.2218,7.9209-126.0286-34.1065-172.5011-74.833C10.7791,618.0079-66.3521,497.147-138.3779,380.9997c-2.0472-25.9241-2.8055-51.3265-2.1005-77.3177C-66.3157,418.0411,12.5592,536.1542,116.3876,626.175c46.5925,40.3965,107.3713,82.9154,172.4461,76.8239,107.2202-10.0367,159.0111-143.0251,190.5449-229.0357,38.9884-106.3438,61.7821-218.1327,102.4442-323.8143,23.287-60.5234,60.9979-114.9529,94.7822-169.9536,30.4149-49.5152,61.0879-99.3443,96.2048-145.7177,20.0333-26.4548,65.8958-91.3837,99.5104-46.6705,15.2524,20.2883,22.9025,47.1924,30.9537,70.8725,12.9025,37.9484,24.7419,76.2393,38.2875,113.9714,38.1719,106.3301,88.8657,207.1969,157.8757,297.003,73.2742,95.355,167.3884,195.3318,292.379,214.2204,108.6732,16.4227,212.4065-31.9098,315.0773-59.2195,59.3326-15.7821,120.2592-25.1605,181.7419-20.0778,88.2561,7.296,168.4376,44.5728,241.3634,93.0653-1.96,25.2456-9.0977,46.6552-19.6519,69.5365Z"/><path class="e" d="M2055.4207,663.8888c-143.532-83.7869-304.9104-140.9521-468.6826-84.8038-81.4404,27.9214-160.3013,90.5464-248.9318,91.9328-99.2462,1.5525-176.6875-86.1019-232.8834-157.2352-70.7571-89.5647-133.6119-184.5275-194.7228-280.7985-15.6503-24.6547-30.8481-50.4148-49.7388-72.7959-8.5864-10.1728-20.338-23.9219-34.9647-23.9944-15.4614-.0767-27.155,14.9139-35.5635,25.9839-18.3046,24.0981-32.4067,51.6328-46.7452,78.1693-25.2747,46.7766-49.7495,93.9809-75.0406,140.7497-24.5699,45.4351-52.9023,89.404-75.0509,136.0541-43.8757,92.4123-72.678,191.2092-118.1696,283.0087-37.835,76.349-98.8307,180.7684-197.674,175.8472-65.3303-3.2526-121.9022-50.6157-165.8151-94.7628C15.6153,784.9103-55.3638,664.385-121.8679,547.0031c-2.8998-35.0826-6.624-70.0736-10.406-105.0701C-62.3704,558.1691,12.4301,678.6834,113.4249,770.9758c44.6902,40.8394,102.0266,82.9855,165.7293,80.41,105.7695-4.2762,163.0517-128.7536,198.0313-212.2167,41.9136-100.0081,67.7625-205.927,109.6241-305.8526,22.6852-54.1508,56.5988-103.3839,86.3976-153.7609,27.9114-47.1862,55.4683-94.6712,85.109-140.8032,12.9125-20.0967,53.1697-98.671,87.9288-76.6769,14.8973,9.4264,23.384,30.8339,30.6367,45.9064,14.9462,31.0609,27.9435,63.0553,42.1552,94.4545,47.9316,105.8995,105.696,207.6971,176.1797,300.3131,63.5634,83.5226,149.3672,177.8954,261.8705,184.0794,97.7062,5.3708,187.5818-51.7766,278.4365-78.8472,61.8196-18.4194,126.099-25.9752,190.2501-16.8429,97.0521,13.816,184.4551,60.3262,264.5472,114.7982-11.2534,19.554-23.0552,38.7532-34.9004,57.9519Z"/><path class="g" d="M2003.9852,760.2963c-141.5208-61.62-319.7706-119.1155-463.8199-32.6945-36.4825,21.8874-67.149,51.1033-97.0009,81.0914-20.9006,20.996-42.3193,45.1962-69.6484,57.9485-64.6992,30.1902-125.6553-41.4713-162.8546-84.4545-80.1333-92.5928-158.0881-191.5776-251.5748-271.4263-32.7775-27.9959-82.2435-68.1143-127.7543-44.7296-46.9816,24.1404-73.2498,88.9772-96.3519,132.8221-21.4843,40.7745-42.4763,81.8015-64.6246,122.2241-21.3404,38.9481-45.8937,74.5285-69.2755,111.9878-47.3754,75.8985-82.5359,158.764-133.9195,232.3158-49.0847,70.2612-121.4098,141.0321-214.4954,114.9073-65.6136-18.4148-118.5234-71.8962-161.3862-122.1299C3.4086,955.1769-62.2422,833.9988-123.7507,714.1514c4.9397-32.4022,6.0414-64.7748,5.6001-97.5089C-53.849,734.951,14.7267,855.6108,106.9559,954.8578c43.2585,46.5501,97.8159,96.3431,163.3047,106.1984,96.7047,14.5531,162.192-78.1718,203.4629-151.6614,47.3761-84.361,78.2645-176.4418,123.064-261.9855,23.0957-44.1007,49.7694-86.2221,72.8031-130.509,22.6752-43.5975,44.3853-87.6761,66.436-131.5895,14.52-28.916,28.7369-58.5052,46.6568-85.5236,9.1431-13.7852,20.8994-31.3068,37.6641-36.5131,38.2264-11.8714,77.0164,46.575,96.2882,70.2309,73.0859,89.7117,140.381,184.0017,213.8582,273.4488,49.8885,60.7316,120.3418,142.0347,208.2046,132.1808,36.6072-4.1055,69.8616-22.9778,101.0391-41.3267,40.1868-23.651,79.5811-48.5541,122.9775-66.0927,158.885-64.2133,326.3146-5.7346,470.209,69.7465-10.7471,19.1853-20.5273,38.5151-28.9388,58.8344Z"/><path class="f" d="M1987,863.7391c-126.303-38.3599-309.1202-78.3154-404.4727,43.9166-46.4128,59.4965-51.2013,131.6697-72.144,201.0657-3.7386,12.3884-9.124,31.3337-24.8782,31.7356-21.426,.5465-43.0315-30.351-55.1617-43.9053-96.3218-107.6296-200.6079-220.0401-324.7429-296.2956-59.3916-36.484-130.2609-65.6642-200.4921-45.7819-59.5844,16.8683-106.4388,62.6347-148.9929,105.3035-25.5425,25.6115-50.4521,51.8497-76.4658,76.9902-26.6489,25.7543-55.3671,49.0802-79.9998,76.8583-57.4725,64.8114-105.5818,137.4915-168.221,197.7823-67.0437,64.5302-153.6033,112.1854-248.0062,80.1287-67.5546-22.9398-122.8083-74.693-168.7148-127.4811-86.0788-98.9824-150.4297-215.6447-209.8649-331.8555,19.2793-22.8957,44.0737-39.0181,56.6541-66.9687,60.3294,120.7534,124.95,242.519,211.4188,346.9934,43.3923,52.4279,96.1633,107.0216,162.3579,129.3632,91.6636,30.9377,168.4346-28.2618,223.4689-96.1366,55.1132-67.9718,93.9561-146.7266,144.3458-217.9059,22.7931-32.197,47.2665-62.3953,68.7778-95.6794,23.0258-35.6276,44.9252-71.9579,67.607-107.8016,29.1564-46.0753,62.5092-104.9846,114.7098-128.3094,53.7023-23.9958,110.8884,7.3986,154.5333,38.1896,109.2297,77.0603,198.5955,183.7965,286.6475,283.0157,28.4897,32.1029,82.0277,96.0303,125.8033,51.0112,19.8998-20.465,32.3958-48.4125,46.798-72.7089,21.4109-36.1199,45.8041-70.8246,78.5555-97.6171,125.5839-102.7343,310.3409-48.1476,445.2068,2.558-4.0188,21.3557-4.7274,41.8826-4.7274,63.5349Z"/><path class="e" d="M1987,944.5031c-130.6016-25.9714-265.2267-13.4379-354.0356,95.4793-49.183,60.3192-68.8176,134.3264-109.1934,199.2255-8.5273,13.7067-20.2092,29.9198-37.9847,30.5496-22.4435,.7952-41.5497-21.9137-54.9408-36.808-85.5306-95.1312-174.9828-196.5409-288.1511-259.7908-55.5912-31.07-118.2665-49.1183-181.5143-33.6273-53.866,13.1932-100.5546,45.5666-146.9439,74.5193-56.1755,35.0605-120.5943,55.8997-171.8602,97.4359-70.2595,56.9249-133.9836,121.4578-207.9597,173.8484-83.0842,58.8411-181.9497,103.7899-285.9064,84.7904-169.3824-30.9572-284.471-196.925-368.0385-332.6885-9.1589-44.3727-13.6776-88.136-6.4846-133.1291,58.2358,105.8518,122.0231,211.6547,206.9387,298.5948,47.975,49.1188,105.3118,94.3455,172.5793,112.88,98.4741,27.1332,190.8307-17.3107,265.8363-78.9324,69.1628-56.8214,125.1577-126.8754,189.8414-188.3228,26.443-25.1199,56.4318-44.0872,85.4208-65.9594,28.1166-21.214,54.9042-44.0861,81.9747-66.5979,45.7108-38.0129,94.2889-78.2849,153.0367-93.5649,67.7661-17.6257,135.6943,5.531,194.4841,39.2904,121.2721,69.6391,223.6611,177.4574,315.7739,280.8694,12.6178,14.1655,32.3229,42.7971,54.2061,43.0704,16.0577,.2006,23.5615-17.0389,28.775-29.6735,27.6803-67.0813,36.8356-138.1833,83.2887-197.0327,91.9834-116.5298,254.1439-95.4808,380.8575-60.5806v46.1544Z"/><path class="g" d="M1987,1038.8164c-131.6926-.7964-238.2202,59.9011-324.488,156.0883-56.9465,63.4944-99.2422,141.903-161.2319,200.6243-37.5879,35.6061-80.6877,42.9337-118.8906,3.3286-43.9948-45.6093-81.0452-95.9022-128.8759-138.201-28.1545-24.8983-58.6071-48.2406-92.4565-64.9131-46.2566-22.7836-95.6058-28.2404-144.7277-11.594-45.7316,15.4974-85.8262,43.6887-130.187,62.3473-24.2955,10.2189-49.7496,17.672-76.0662,20.1151-11.7842,1.0941-25.3919-1.7501-36.6878,.3276-15.3611,2.8256-32.4174,15.4171-45.8958,22.9155-75.717,42.1235-147.1141,91.4871-224.2211,131.2311-89.403,46.0819-188.4156,82.5441-290.5242,76.7578-151.1826-8.5673-264.3775-111.8326-349.7165-228.5366-19.508-45.8218-38.6615-91.7308-55.4043-138.649,83.8605,126.7251,197.8893,265.5917,359.2457,285.0637,103.8754,12.5355,203.1619-30.4778,288.7465-85.4968,76.6477-49.2738,144.5063-110.0983,217.8641-163.8218,13.5973-9.958,28.7482-23.4152,44.3563-29.9961,13.9026-5.8619,31.2178-6.689,45.7996-11.1996,26.7462-8.2733,52.2718-19.8826,77.1253-32.6804,45.6566-23.5101,89.8961-52.4524,140.1647-65.2987,58.6598-14.9907,116.3453-.7938,168.5416,27.8169,108.2375,59.3292,183.3226,157.8202,266.7014,245.491,13.9673,14.6863,33.2377,31.4978,54.9951,30.0266,20.2543-1.3695,35.3212-18.2898,46.7633-33.3699,48.5518-63.9884,77.1555-140.2487,129.647-202.0956,33.5017-39.4728,74.0411-73.0419,121.3607-94.6052,68.8749-31.3859,144.1082-33.8503,218.062-24.1943v62.5184Z"/></g></g></g></g><g id="d"/></svg>