<?xml version="1.0" encoding="UTF-8"?><svg id="a" xmlns="http://www.w3.org/2000/svg" width="592.7715" height="592.6357" viewBox="0 0 592.7715 592.6357"><g><path d="M365.498,37.5249c-.4756,3.0146-1.666,5.0015-3.5723,5.9619-1.9062,.96-5.0176,1.0996-9.335,.4189-4.9678-.7827-8.8848-2.1167-11.751-4.0024-2.7539-1.8179-3.9707-3.7397-3.6514-5.7656,.167-1.061,.792-2.2852,1.876-3.6714,1.8926-2.4448,4.6094-3.7593,8.1475-3.9429,1.96,.1113,3.9092,.2085,5.8486,.2915,.2881-.1025,.4473-.2505,.4785-.4434,.1475-.9409-.8555-2.2603-3.0098-3.9595-2.417-1.9131-5.0488-3.0942-7.8945-3.543-4.0273-.6348-7.3193,.416-9.876,3.1519-2.2227,2.3438-3.6729,5.6621-4.3496,9.9541-.334,2.1226-.4795,4.3735-.4336,6.7529,.1094,10.2749,1.0225,17.4995,2.7373,21.6748,1.3701,3.3799,3.5625,5.3066,6.5771,5.7822,1.1094,.1748,2.2461,.2554,3.4102,.2407,4.1133-.0684,7.4912-1.1177,10.1348-3.1479,1.292-.9824,3.3428-3.2544,6.1533-6.8154,.3203-.147,.4688-.1484,.4463-.0039-.042,1.2046-.1289,2.229-.2627,3.0732-.6729,4.2686-2.1846,7.8984-4.5342,10.8892-3.0918,3.937-7.1787,5.9492-12.2588,6.0381-4.0654,.0757-7.5938-.1216-10.583-.5928-16.1104-2.5396-22.5176-14.2637-19.2217-35.1724,1.5967-10.1289,5.3799-17.355,11.3516-21.6782,5.3838-3.897,12.1875-5.1968,20.4111-3.9009,9.3086,1.4678,15.9102,4.6709,19.8027,9.6094,2.9873,3.7832,4.1064,8.0498,3.3584,12.8008Z"/><path d="M421.1797,85.1538c-.2129,.4932-.4014,.8379-.5645,1.0327-3.2207,5.6841-7.6895,8.7432-13.4053,9.1772-4.3125,.3213-9.6631-.894-16.0537-3.6475-.9863-.4253-5.0459-2.3872-12.1777-5.8857-1.2275-.6084-3.3604-1.7666-6.3984-3.4746-2.5879-1.4604-4.5762-2.4902-5.9668-3.0889-2.8252-1.2173-5.2471-1.6104-7.2676-1.1782l3.9453-8.5083c.8711-.0493,1.834,.1528,2.8887,.6069,1.5918,.6855,3.165,1.9087,4.7197,3.6685,.7764-10.1929,4.7812-23.8989,12.0146-41.1187,.6445-1.5571,.4336-2.8569-.6318-3.9014-1.2129-.7622-2.5869-1.7388-4.1201-2.9316-.377-.4814-.2129-1.5405,.4922-3.1772,.4346-1.0093,.7725-1.6074,1.0137-1.7964,1.6826,1.5225,6.0479,4.2549,13.0967,8.1953,7.1504,4.0117,13.1699,7.0703,18.0576,9.1763,5.5605,2.396,12.3818,5.1357,20.4639,8.2197-2.2285,1.7778-4.3594,3.8237-6.3936,6.1377-1.6035,1.9941-3.2021,3.9771-4.7959,5.9482-.3242-.1128-1.1035-.3691-2.3398-.769-.9902-.2935-1.7539-.5562-2.292-.7881-.4492-.1934-.6328-.4453-.5518-.7563,1.1914-3.2607,1.6426-5.7251,1.3506-7.3931-.4053-2.5137-3.4893-5.0122-9.251-7.4951-.4492-.1934-2.7412-1.0747-6.876-2.644-2.6562,2.5239-4.9404,6.0059-6.8535,10.4453-.3477,.8071-.792,1.9316-1.334,3.373-.541,1.4414-.9375,2.4541-1.1885,3.0366,1.8291,.6289,3.4121,1.1514,4.748,1.5674,3.248,.9751,5.001,1.3179,5.2578,1.0298,.4307-.5054,.7764-1.061,1.0371-1.6665,.4355-1.0088,.4766-2.0938,.127-3.2554-.3447-.8662-.6895-1.7324-1.0332-2.5986,1.2725-.1157,2.4551-.1777,3.5488-.1851,2.625,.0146,4.6426,.2993,6.0527,.853,.0518,1.1128-.2695,2.4761-.9658,4.0903-.2119,.4937-.5645,1.2188-1.0566,2.1763-.4932,.958-.8398,1.6719-1.043,2.1426-.7051,1.6367-1.4346,4.5928-2.1865,8.8677-.084,.4419-.1953,.7002-.333,.7734-.0957,.0381-.2402,.0029-.4326-.1064-1.7676-1.0806-4.8994-2.6958-9.3955-4.8462-2.0693-.9976-4.1318-1.98-6.1885-2.9458-2.917,7.9414-3.541,13.9863-1.8721,18.1348,1.4414,3.6255,5.1445,6.7227,11.1094,9.2925,1.8828,.8115,3.8135,1.2046,5.792,1.1797,1.7373-.022,2.7119-.2798,2.9248-.7729,.1064-.2466-.0879-.4766-.5811-.689-.4033-.1738-.9531-.3774-1.6504-.6113-.6963-.2339-1.2803-.4521-1.751-.6553-4.3721-1.8838-6.5176-4.8022-6.4365-8.7544,.0176-.6567,.1514-1.2769,.4033-1.8604,.7529-1.7485,2.501-2.8433,5.2432-3.2837,2.9141-.4717,6.5811-.1279,11,1.0317,1.3096,.3521,2.4248,.7256,3.3447,1.1221,4.9766,2.1445,6.5625,5.314,4.7559,9.5063Z"/><path d="M480.6572,102.0259c-1.8613,2.4185-3.8584,3.5918-5.9912,3.521-2.1338-.0708-4.9316-1.439-8.3945-4.105-3.9854-3.0679-6.7842-6.1157-8.3965-9.144-1.5459-2.915-1.6924-5.1851-.4414-6.8101,.6543-.8511,1.79-1.626,3.4053-2.3232,2.833-1.2393,5.8467-1.0913,9.041,.4429,1.666,1.0366,3.3311,2.0562,4.9932,3.0586,.3027,.0479,.5127-.0054,.6318-.1606,.5811-.7544,.333-2.3931-.7432-4.9165-1.2051-2.8379-2.9492-5.1357-5.2314-6.8926-3.2314-2.4873-6.624-3.1426-10.1787-1.9663-3.0742,.9917-5.9375,3.2095-8.5879,6.6528-1.3105,1.7026-2.5166,3.6084-3.6172,5.7192-4.8262,9.0708-7.4873,15.8496-7.9824,20.3359-.417,3.623,.583,6.3652,3.002,8.2266,.8896,.6851,1.8486,1.3003,2.8779,1.8457,3.6426,1.9111,7.1104,2.6089,10.4033,2.0938,1.6045-.2441,4.4941-1.2549,8.667-3.0337,.3516,.0239,.4824,.0942,.3936,.21-.6143,1.0376-1.1816,1.8945-1.7031,2.5718-2.6357,3.4243-5.7021,5.8857-9.1973,7.3853-4.6006,1.9736-9.1514,1.7817-13.6533-.5747-3.6045-1.8818-6.6064-3.7456-9.0049-5.5918-12.9238-9.9487-12.9287-23.3086-.0176-40.0815,6.2549-8.1255,13.0391-12.6548,20.3506-13.5884,6.5928-.8403,13.1885,1.2788,19.7852,6.3574,7.4678,5.7485,11.7266,11.7231,12.7764,17.9229,.8096,4.752-.2529,9.0337-3.1865,12.8447Z"/><path d="M479.8223,162.1753c-.2393,.2085-.4717,.1846-.6963-.0728-.1768-.2026-1.459-1.9756-3.8467-5.3193-2.3887-3.3442-4.4736-6.0361-6.2578-8.0767-2.8916-3.3086-8.6572-8.5322-17.2959-15.6699,.6797-.5947,2.5762-1.7817,5.6895-3.5625,.0527-.0142,.9092,.6318,2.5693,1.9375,1.79,1.418,3.3154,2.1431,4.5771,2.1758,.9316,.0283,4.2842-1.8315,10.0547-5.5791,6.293-4.041,11.5352-7.8936,15.7256-11.5566,3.6768-3.2134,5.8838-5.8076,6.6221-7.7827,.2412-.5029,.1055-1.0483-.4092-1.6362-.3691-.4233-.9746-.8833-1.8145-1.3809-.8408-.4976-1.3086-.8018-1.4053-.9121-.2734-.3125-.1826-1.3403,.2725-3.083,.4541-1.7427,.957-2.8555,1.5088-3.3374,.2568-.2251,.6826,.0024,1.2773,.6826,2.1533,2.4629,5.9512,6.1958,11.3936,11.1987,6.2236,5.7476,11.0322,9.7646,14.4258,12.0513,.2061,.0137-.2139,.4785-1.2617,1.3945-.9561,.8354-1.6523,1.1523-2.0879,.9497-3.1299-1.5771-6.6299-1.3882-10.498,.5664-2.1865,1.1338-6.7559,4.3652-13.7051,9.6943-1.2598,.9712-2.3398,1.8501-3.2402,2.6372-6.3604,5.5596-9.707,9.7812-10.0381,12.6655-.0908,.8247,.1943,1.6133,.8535,2.3672,.4658,.5332,1.2217,1.1118,2.2705,1.7358,1.0479,.624,1.6279,1.0005,1.7412,1.1294,.1445,.165-.0254,.5088-.5107,1.0298-2.2891,2.3896-4.2598,4.3071-5.9141,5.7534Z"/><path d="M525.2783,200.4204c-3.2158,1.8018-6.6318,3.0718-10.248,3.8105-2.6094,.5386-5.3027,.7739-8.082,.7085-1.4473-.085-2.8984-.1538-4.3545-.2051-.3721-.0156-.6406-.2432-.8027-.6836-3.2109-8.5278-6.8027-16.3374-10.7764-23.4302-5.251-9.3716-9.6953-14.2832-13.335-14.7349l7.2451-5.9482c1.4111,.7202,2.624,1.9858,3.6387,3.7964,.5127,.9155,.9756,2.0415,1.3887,3.3774,5.7012-7.0562,14.9941-14.1938,27.8809-21.4136,.958-.5366,2.4375-1.3306,4.4375-2.3813,2-1.0503,3.5215-1.8677,4.5654-2.4526,1.8105-1.0142,2.3535-2.5923,1.6299-4.7329-.3086-.7505-.7363-1.9385-1.2822-3.5635-.1738-.6582,.6875-1.5186,2.584-2.5806,.4893-.2744,.9707-.4883,1.4453-.6421,.0352,.5122,4.4463,10.6333,13.2344,30.3647-4.7002,.2539-10.417,1.2881-17.1514,3.1025-7.1367,1.8994-12.7168,3.9761-16.7422,6.2314-9.6484,5.4058-12.4082,11.7935-8.2793,19.1631,2.9951,5.3457,6.2617,8.8047,9.8018,10.376,2.5791,1.1572,4.7842,1.2231,6.6162,.1968,.958-.5371,1.3066-1.04,1.0439-1.5083-.0596-.1069-.1621-.1895-.3066-.248-4.084-1.9937-7.0859-4.7056-9.0068-8.1343-1.7549-3.1309-2.0918-6.2305-1.0117-9.2979,.4717-1.356,1.2393-2.332,2.3047-2.9287,1.7461-.9785,4.0176-.9219,6.8125,.1714,2.7373,1.0405,5.4854,2.873,8.2432,5.4976,2.1963,2.0718,3.748,3.917,4.6553,5.5356,2.5889,4.6216,.54,8.8066-6.1484,12.5537Z"/><path d="M518.4043,247.7568c-.3027,.0942-.5059-.022-.6064-.3481-.0801-.2568-.5352-2.3975-1.3643-6.4214-.8301-4.0249-1.6465-7.3306-2.4512-9.9185-1.3047-4.1963-4.4609-11.3071-9.4707-21.3311,.8633-.2686,3.0781-.5859,6.6445-.9541,.0537,.0083,.5752,.9458,1.5654,2.8115,1.0625,2.0215,2.1641,3.3027,3.3037,3.8433,.8408,.4033,4.6592,.0596,11.4531-1.0303,7.3906-1.147,13.7432-2.5469,19.0586-4.1997,4.6621-1.4497,7.7305-2.9282,9.2061-4.4351,.4238-.3618,.5205-.916,.2881-1.6621-.167-.5361-.5332-1.2017-1.1006-1.9971s-.8721-1.2627-.915-1.4028c-.123-.3965,.375-1.2993,1.4971-2.709,1.1211-1.4097,2.0312-2.2231,2.7305-2.4404,.3262-.1016,.624,.2788,.8926,1.1416,.9707,3.1235,2.9326,8.0747,5.8838,14.853,3.3623,7.7749,6.1328,13.3945,8.3096,16.8599,.1836,.0962-.3887,.3511-1.7178,.7642-1.2129,.377-1.9775,.3848-2.2939,.0229-2.2227-2.7095-5.499-3.9536-9.8281-3.7324-2.459,.1509-7.9443,1.2559-16.457,3.3149-1.5449,.3774-2.8877,.7441-4.0303,1.0996-8.0664,2.5078-12.835,5.0132-14.3066,7.5161-.416,.7173-.4756,1.5537-.1777,2.5103,.21,.6758,.667,1.5112,1.373,2.5063s1.084,1.5742,1.1348,1.7373c.0654,.21-.2295,.4551-.8838,.7354-3.0596,1.2583-5.6396,2.2134-7.7373,2.8657Z"/><path d="M541.3311,306.5293c-.5352,.0459-.9277,.042-1.1768-.0098-6.5312-.1582-11.3369-2.6543-14.417-7.4893-2.3174-3.6504-3.7705-8.9419-4.3584-15.875-.0908-1.0708-.2764-5.5757-.5576-13.5142-.042-1.3691-.0273-3.7959,.0449-7.2808,.0674-2.9707,.0361-5.21-.0918-6.7183-.2598-3.0649-1.0566-5.3862-2.3906-6.9639l9.3633-.5361c.4551,.7451,.7314,1.6895,.8281,2.833,.1465,1.7271-.1895,3.6914-1.0078,5.8926,9.3535-4.125,23.3271-7.061,41.9229-8.8081,1.6768-.167,2.7236-.9658,3.1416-2.3979,.0996-1.4297,.3125-3.1016,.6406-5.0156,.2471-.5596,1.2578-.915,3.0342-1.0659,1.0947-.0928,1.7812-.0771,2.0615,.0459-.5479,2.2021-.8975,7.3403-1.0459,15.4146-.1631,8.1968-.0195,14.9473,.4297,20.251,.5117,6.0327,1.3145,13.3398,2.4092,21.9204-2.6191-1.1255-5.4287-2.0391-8.4287-2.7402-2.5146-.4731-5.0176-.9473-7.5068-1.4224-.0537-.3389-.1963-1.147-.4268-2.4263-.208-1.0112-.3369-1.8091-.3867-2.3926-.041-.4868,.0947-.7676,.4072-.8433,3.4375-.4873,5.8223-1.2529,7.1553-2.2969,2.0254-1.5439,2.7734-5.4419,2.2432-11.6934-.041-.4873-.3457-2.9238-.9131-7.3101-3.4785-1.1509-7.627-1.522-12.4434-1.1138-.876,.0742-2.0771,.2124-3.6035,.4155-1.5264,.2026-2.6055,.3311-3.2383,.3848,.3086,1.9087,.5947,3.5513,.8584,4.9253,.6738,3.3242,1.1982,5.0312,1.5732,5.1226,.6494,.1406,1.3027,.1836,1.959,.1279,1.0947-.0928,2.0713-.5679,2.9297-1.4243,.6016-.7124,1.2021-1.4248,1.8037-2.1377,.7021,1.0674,1.3154,2.0811,1.8379,3.042,1.2256,2.3218,1.9268,4.2344,2.1035,5.7388-.9561,.5708-2.3096,.9307-4.0615,1.0791-.5352,.0454-1.3408,.0771-2.418,.0947-1.0762,.0176-1.8701,.0483-2.3809,.0913-1.7764,.1509-4.7256,.9023-8.8496,2.2568-.4297,.1343-.71,.1577-.8398,.0713-.0791-.0669-.1152-.2109-.1094-.4316,.1182-2.0684,.0645-5.5918-.1611-10.5713-.0967-2.2949-.2041-4.5767-.3223-6.8452-8.3789,1.1753-14.002,3.4771-16.873,6.9058-2.5156,2.9819-3.499,7.708-2.9512,14.1792,.1729,2.0435,.7373,3.9312,1.6924,5.6636,.8398,1.521,1.5273,2.2593,2.0625,2.2144,.2676-.0229,.3789-.3022,.333-.8369-.0371-.438-.1172-1.019-.2393-1.7441-.123-.7246-.2061-1.3423-.249-1.853-.4023-4.7437,1.1582-8.0127,4.6816-9.8052,.5879-.2949,1.1973-.4692,1.8301-.5229,1.8975-.1606,3.6875,.8638,5.3691,3.0732,1.792,2.3477,3.2188,5.7422,4.2812,10.1855,.3076,1.3208,.5039,2.4805,.5889,3.478,.458,5.4004-1.5889,8.2939-6.1377,8.6787Z"/><path d="M525.3438,393.585c-2.291-.6914-4.7695-1.7324-7.4355-3.123-8.4736-4.3682-11.9092-11.958-10.3047-22.7705,.3125-2.0479,.7109-3.8779,1.1982-5.4912,1.8125-6.0068,4.71-11.0488,8.6943-15.125,4.5391-4.6494,9.75-7.1699,15.6318-7.5625,2.1348-.1465,3.8916-.0117,5.2715,.4043,3.8096,1.1494,5.1123,5.4951,3.9082,13.0371-.3545,2.1885-.7676,4.0654-1.2402,5.6318-1.1357,3.7627-2.5645,6.5127-4.2871,8.25s-3.4678,2.2373-5.2344,1.5c-4.8301-1.9932-7.0283-7.5137-6.5928-16.5635,0-.2549-.1514-.4277-.4551-.5195-1.0293-.3105-2.7578,.5195-5.1885,2.4893-2.6035,2.1221-4.2402,4.292-4.9102,6.5137-.9023,2.9912,.2568,5.8662,3.4795,8.623,2.9385,2.5186,7.1064,4.5928,12.5059,6.2217,10.0273,3.0254,19.7773,3.6719,29.251,1.9395,.0635-4.5195-.3779-8.5928-1.3242-12.2188-.2158-.8057-.8848-1.377-2.0068-1.7148-.585-.1768-1.7324-.3252-3.4424-.4463-1.7109-.1201-2.7529-.2373-3.127-.3496-.7246-.2188-1.0498-1.21-.9766-2.9727,.1562-1.5342,.3008-3.4922,.4336-5.875,5.6914,1.0801,13.3975,1.7852,23.1152,2.1162,.2549,.001,.3291,.1758,.2236,.5264l-2.4961,8.2744c-3.3779,11.1963-6.0264,20.6484-7.9443,28.3574-.1035,.4277-.4111,.6025-.9229,.5254-4.5938-.749-10.7305-.4834-18.4092,.7949-6.7959,1.1377-12.6006,.9795-17.415-.4727Z"/><path d="M475.3066,450.4121c-.8086-1.4258-2.0059-3.6113-3.5918-6.5576,2.2852-3.2939,3.8486-5.6133,4.6885-6.96,2.9072-4.6602,5.6211-10.0459,8.1396-16.1582,3.2393,2.7402,6.5986,5.1973,10.0791,7.3682,3.8311,2.3906,7.0244,3.9375,9.5791,4.6396,2.4639-3.2109,6.3555-8.1787,11.6738-14.9033-1.9971-2.1953-3.9395-4.502-5.8281-6.917-2.1621-2.7598-3.8594-5.3438-5.0908-7.752-1.0527,1.041-3.292,4.0312-6.7207,8.9717-2.4258-2.0605-4.7471-3.7822-6.9639-5.165,4.5088-3.7197,8.543-7.3037,12.1035-10.75,2.377-2.2871,5.2734-5.3145,8.6895-9.082,.3828,1.0449,.8965,2.3438,1.54,3.8965l1.2402,3.0615c-.7764,.5518-2.0469,1.4131-3.8145,2.584,2.3564,5.8154,6.8545,12.5361,13.4932,20.1602,6.9404,8.0146,13.1123,13.8516,18.5137,17.5088-1.5537,3.3193-2.8711,6.4678-3.9531,9.4482-1.0928,3.0879-2.0928,6.5352-3.001,10.3428-6.9043-.0498-16.5332-1.3818-28.8877-3.9961-5.9141-1.3604-13.7451-3.1533-23.4922-5.3789-1.3232-.2793-2.8789,.3467-4.6689,1.8779-1.249,1.2637-2.4922,2.5176-3.7275,3.7607Zm42.6182-6.3857c2.8369,1.7705,5.458,.7295,7.8623-3.123,1.7441-2.7959,2.5752-5.7881,2.4932-8.9766-.0801-3.3301-1.1357-5.6289-3.165-6.8955-2.6924-1.6807-5.4795-.2109-8.3623,4.4082-4.1484,6.6484-3.7588,11.5107,1.1719,14.5869Z"/><path d="M442.626,498.7852c-1.5547-1.6895-3.1816-4.124-4.8809-7.3037-2.2773-4.2422-2.3486-9.1865-.2139-14.834,2.2139-5.8867,6.5898-11.8389,13.1289-17.8564,6.4131-5.9023,12.6377-9.3242,18.6719-10.2666,5.0264-.8115,8.7637,.1133,11.2109,2.7715,1.5703,1.707,2.2617,3.7734,2.0752,6.2031-.2021,2.7734-1.5391,5.6465-4.0127,8.6191-1.2354,1.4688-2.5898,2.8818-4.0625,4.2373-3.0361,2.7939-5.8398,4.5605-8.4102,5.3018-2.4834,.7256-4.3701,.3887-5.6602-1.0127-1.9502-2.1201-2.4639-4.9492-1.54-8.4873,.4336-1.6924,1.5312-4.1953,3.292-7.5088,.6924-1.2676,.9053-2.0449,.6416-2.332-.8105-.8799-3.0742,.3906-6.793,3.8135-2.9277,2.6943-5.0186,5.3984-6.2715,8.1113-1.5566,3.3555-1.4248,6.0225,.3936,7.999,.2646,.2871,.6064,.5859,1.0254,.8975,5.8516,4.3027,9.501,6.7344,10.9453,7.2959,3.0283,1.1279,6.0527,.3027,9.0703-2.4746,.791-.7275,2.0469-2.0752,3.7705-4.042,1.7227-1.9678,3.0068-3.3398,3.8506-4.1172,5.8027-5.3398,10.8613-5.666,15.1768-.9766,1.3721,1.4902,2.7451,3.5771,4.1201,6.2607,1.8877,3.6377,2.251,7.584,1.0898,11.8379-1.3867,5.0908-4.917,10.249-10.5938,15.4736-5.8389,5.373-11.2354,8.6484-16.1914,9.8252-4.502,1.0576-7.9346,.3018-10.2988-2.2676-3.5215-3.8262-2.2285-8.5498,3.8789-14.1709,2.9824-2.7451,5.9697-4.582,8.9629-5.5117,2.8018-.8857,4.748-.7363,5.8389,.4492,1.5703,1.707,1.5078,4.2529-.1875,7.6377-.6904,1.2324-1.3896,2.4736-2.0977,3.7236-.6025,1.1836-.7383,1.9561-.4072,2.3154,.4463,.4844,1.4717,.3281,3.0771-.4688,1.6055-.7979,3.208-1.9316,4.8066-3.4033,1.9766-1.8184,3.3037-3.6211,3.9824-5.4072,.8145-2.1426,.5352-3.96-.8369-5.4512-.6445-.7002-1.5264-1.3164-2.6445-1.8457-1.9727-1.1709-3.9463-2.3408-5.9189-3.5117-2.1436-1.2119-4.1113-1.6904-5.9014-1.4365-2.3467,.334-5.0371,1.8984-8.0732,4.6934-.2695,.248-1.0938,1.0635-2.4736,2.4502-1.3789,1.3848-2.4277,2.4082-3.1465,3.0703-3.4492,3.1738-6.4551,5.0273-9.0166,5.5605-3.2764,.6592-6.4014-.6279-9.377-3.8613Z"/><path d="M360.5967,552.4355c-3.7061-8.3447-2.7832-18.3574,2.7676-30.0391l-10.0879,2.2764c-.8652-.6846-2.1133-1.7207-3.7441-3.1064,2.5791-.9307,6.2109-2.4365,10.8965-4.5176,4.4404-1.9727,9.1299-4.1348,14.0684-6.4883-.5938,3.415-.6406,8.5117-.1426,15.29,.5557,7.4463,1.5967,12.8877,3.1221,16.3242,1.1895,2.6768,2.5654,3.6689,4.127,2.9756,2.5889-1.1494,4.2988-5.0879,5.1309-11.8154,.7324-5.749,.6885-11.5928-.1328-17.5322-2.5859-5.8232-4.5107-9.376-5.7744-10.6582-1.0391,.0078-2.9971,.0488-5.875,.125-.0322-.7334-.1152-2.0332-.248-3.8965,8.3438-1.7832,15.7568-3.1377,22.2363-4.0654-.0195,6.6328,1.8193,14.1113,5.5156,22.4346,3.9727,8.9473,7.4775,12.7471,10.5117,11.3994,2.0078-.8916,3.1504-3.5234,3.4268-7.8936,.2598-4.2285-.3408-8.918-1.7988-14.0664-1.293-2.792-4.7891-7.8379-10.4893-15.1367,5.248-.0332,10.293-1.125,15.1348-3.2754,4.2617-1.8926,6.8652-3.9707,7.8105-6.2334l3.8867,7.8506c-.6172,.835-1.54,1.5254-2.7666,2.0703-1.3613,.6045-3.0664,.9473-5.1133,1.0283,3.3506,3.6943,6.8838,8.5234,10.6006,14.4863,3.5654,5.6826,6.4678,11.0449,8.707,16.0879l.6387,1.4395c.833,1.874,2.0713,2.6465,3.7139,2.3174,1.5449-.5527,3.0898-1.1055,4.6338-1.6572,.8848-.2324,2.0459,1.2686,3.4834,4.5039,.0791,.1787-.1162,.3721-.584,.5801-2.5439,1.1299-10.958,5.5205-25.2441,13.1738-.5928-7.3496-2.4697-14.584-5.6309-21.7012-.624-1.4062-1.2168-2.5596-1.7764-3.459,1.8057,12.3672-.6699,22.5498-7.4307,30.5479-1.5596,1.8408-3.0645,3.084-4.5146,3.7275-4.7529,2.1113-9.2305-1.5645-13.4316-11.0244-1.5059-3.3926-2.8496-7.2295-4.0303-11.5137,.001,3.5518-.8115,8.4277-2.4404,14.6279-1.8613,6.9971-5.2686,11.5957-10.2217,13.7949-3.5254,1.5654-7.0811,1.5283-10.668-.1104-3.6387-1.6973-6.3936-4.6533-8.2666-8.8711Z"/><path d="M307.4551,523.1729c-.042-.3135,.1064-.4941,.4443-.54,.2666-.0361,2.4531-.1279,6.5596-.2754,4.1064-.1484,7.502-.4033,10.1875-.7666,4.3555-.5879,11.8926-2.5166,22.6104-5.7871,.1211,.8955,.0654,3.1318-.165,6.7109-.0176,.0508-1.0293,.4092-3.0332,1.0742-2.1699,.7119-3.6162,1.585-4.3398,2.6182-.5371,.7627-.834,4.585-.8906,11.4658-.0986,7.4775,.2246,13.9746,.9688,19.4912,.6533,4.8389,1.6006,8.1104,2.8408,9.8154,.2861,.4785,.8164,.666,1.5908,.5615,.5566-.0752,1.2744-.3262,2.1523-.7529,.8789-.4268,1.3906-.6494,1.5361-.6689,.4111-.0557,1.2188,.5859,2.4219,1.9268,1.2031,1.3398,1.8535,2.373,1.9521,3.0996,.0449,.3379-.3789,.5684-1.2744,.6895-3.2422,.4375-8.4502,1.5469-15.625,3.3291-8.2266,2.0215-14.2295,3.8184-18.0078,5.3877-.126,.165-.2822-.4424-.4678-1.8213-.1699-1.2588-.0508-2.0137,.3594-2.2656,3.041-1.7412,4.8135-4.7646,5.3154-9.0693,.2607-2.4502,.085-8.043-.5283-16.7793-.1152-1.5859-.2539-2.9717-.4141-4.1572-1.1299-8.3711-2.8066-13.4912-5.0293-15.3584-.6387-.5303-1.4531-.7275-2.4453-.5938-.7021,.0947-1.6016,.4072-2.7012,.9375-1.0977,.5303-1.7314,.8066-1.9014,.8291-.2178,.0293-.4102-.3018-.5781-.9932-.7314-3.2275-1.2441-5.9297-1.5381-8.1074Z"/><path d="M249.9277,516.1904c.2388-.5693,.7822-1.7773,1.6299-3.623,1.0571,.2754,4.8306,1.5371,11.3213,3.7852,6.0376,2.0928,9.4478,3.3037,10.231,3.6309-3.7085,6.7002-5.9209,14.8213-6.6353,24.3652-.2954,3.9443-.0522,7.3164,.7295,10.1172,.7817,2.7998,1.9277,4.2568,3.437,4.3701,1.8257,.1367,4.1157-1.3447,6.8691-4.4434,2.9932-3.3506,5.1445-7.2295,6.4536-11.6357,.2754-3.6758-.4194-11.0732-2.084-22.1895,5.0708,2.583,10.3936,4.083,15.9678,4.501,4.2617,.3184,7.1924-.2451,8.7939-1.6924l-.3076,9.0117c-.9365,.4189-2.0996,.5771-3.4873,.4727-1.7041-.127-3.3691-.6191-4.9941-1.4756,2.4512,8.458,3.1582,19.6143,2.1211,33.4668-.0732,.9736-.2285,2.3945-.4668,4.2617-.2373,1.8672-.3896,3.252-.458,4.1523-.1201,1.6074,.7529,2.7012,2.6191,3.2812,.8174,.208,2.1738,.5664,4.0693,1.0762,.5752,.165,.7812,1.3311,.6191,3.498-.0332,.4385-.1445,.9561-.3369,1.5537-2.2812-.5869-12.1353-2.2305-29.5601-4.9307,4.457-5.249,7.0146-12.2676,7.6729-21.0557,.0874-1.1689,.1123-2.1465,.0728-2.9326-1.8799,5.4902-4.7676,10.3779-8.6631,14.665-3.1479,3.46-6.6597,6.2217-10.5356,8.2812-3.2642,1.7383-5.8213,2.5391-7.6714,2.4004-3.1895-.2393-5.4585-2.4658-6.8081-6.6797-1.2095-3.7871-1.5811-8.7979-1.1143-15.0303,.2935-3.9199,1.397-9.6582,3.3091-17.2139,1.9126-7.5566,3.0137-13.2705,3.3032-17.1416,.1279-1.7041,.0581-3.0557-.21-4.0547-.9189-.4854-2.8809-1.415-5.8872-2.792Z"/><path d="M112.9541,465.8047c1.4902-1.7451,3.7129-3.6514,6.6665-5.7207,3.938-2.7695,8.8379-3.4316,14.7007-1.9893,6.1094,1.4932,12.5435,5.124,19.3013,10.8945,6.6279,5.6602,10.7715,11.4297,12.4292,17.3076,1.4077,4.8936,.9385,8.7139-1.4082,11.4619-1.5059,1.7637-3.4756,2.6982-5.9092,2.8037-2.7773,.1328-5.79-.8506-9.0381-2.9502-1.6064-1.0518-3.1714-2.2266-4.6938-3.5264-3.1372-2.6787-5.2275-5.251-6.2705-7.7139-1.0186-2.3789-.9097-4.292,.3267-5.7402,1.8711-2.1914,4.6182-3.04,8.2417-2.5459,1.7319,.2266,4.3486,1.0166,7.8491,2.3682,1.3413,.5352,2.1387,.6543,2.3921,.3574,.7769-.9102-.7563-3.0059-4.5996-6.2871-3.0264-2.584-5.9604-4.3359-8.8042-5.2549-3.5186-1.1426-6.1499-.6934-7.894,1.3496-.2534,.2969-.5098,.6729-.7686,1.125-3.5708,6.3252-5.5479,10.2393-5.9321,11.7412-.7563,3.1416,.4243,6.0449,3.5435,8.708,.8174,.6982,2.3057,1.7842,4.4648,3.2588,2.1597,1.4746,3.6758,2.585,4.5483,3.3301,5.9971,5.1211,6.9268,10.1045,2.7886,14.9502-1.3154,1.541-3.2231,3.1543-5.7227,4.8408-3.3848,2.3096-7.2588,3.1436-11.6216,2.5-5.2207-.7666-10.7646-3.6533-16.6318-8.6641-6.0337-5.1514-9.9316-10.1172-11.6938-14.8975-1.5889-4.3418-1.25-7.8408,1.0171-10.4961,3.377-3.9541,8.2217-3.2363,14.5342,2.1533,3.082,2.6318,5.2642,5.3779,6.5454,8.2383,1.2153,2.6748,1.2998,4.625,.2534,5.8506-1.5063,1.7637-4.041,2.0068-7.6055,.7295-1.3062-.5381-2.6221-1.084-3.9473-1.6377-1.248-.4561-2.0303-.498-2.3477-.126-.4282,.501-.1499,1.5,.8335,2.999,.9844,1.498,2.3022,2.9531,3.9546,4.3643,2.0425,1.7441,3.9912,2.8457,5.8452,3.3057,2.2256,.5518,3.9961,.0566,5.312-1.4844,.6182-.7236,1.124-1.6729,1.5161-2.8467,.9253-2.0986,1.8511-4.1982,2.7764-6.2969,.9468-2.2734,1.1865-4.2842,.7197-6.0312-.6133-2.2891-2.4888-4.7734-5.6265-7.4531-.2788-.2373-1.188-.958-2.729-2.1611-1.5405-1.2031-2.6826-2.1221-3.4253-2.7568-3.5649-3.0439-5.7646-5.8057-6.6011-8.2852-1.0464-3.1729-.1436-6.4307,2.7104-9.7725Z"/><path d="M104.9316,418.6123c.251-.1934,.4814-.1543,.6899,.1162,.1641,.2129,1.334,2.0625,3.5093,5.5479,2.1758,3.4863,4.0898,6.3027,5.7432,8.4502,2.6812,3.4814,8.1108,9.0537,16.2896,16.7139-.7158,.5508-2.6826,1.6182-5.8999,3.2021-.0532,.0107-.8677-.6875-2.4438-2.0928-1.6987-1.5264-3.1763-2.3457-4.4331-2.457-.9282-.0859-4.3896,1.5625-10.3828,4.9443-6.5312,3.6426-12.0024,7.1621-16.4131,10.5576-3.8687,2.9785-6.2324,5.4307-7.0923,7.3555-.2725,.4873-.1699,1.04,.3066,1.6592,.3428,.4453,.918,.9424,1.7256,1.4912,.8081,.5488,1.2563,.8809,1.3457,.9971,.2534,.3291,.0991,1.3496-.4629,3.0605-.5615,1.7109-1.1333,2.79-1.7134,3.2373-.271,.208-.6816-.0449-1.2329-.7607-1.9961-2.5928-5.5547-6.5537-10.6763-11.8857-5.854-6.1221-10.4038-10.4307-13.6484-12.9238-.2056-.0264,.2432-.4639,1.3457-1.3135,1.0059-.7744,1.7207-1.0469,2.1431-.8184,3.0259,1.7686,6.5303,1.7979,10.5122,.0869,2.2534-.9951,7.0142-3.9365,14.2817-8.8242,1.3174-.8906,2.4497-1.7012,3.397-2.4307,6.6934-5.1533,10.2959-9.1592,10.8062-12.0176,.1411-.8174-.0938-1.6221-.7046-2.415-.4316-.5615-1.1509-1.1855-2.1587-1.874-1.0073-.6875-1.563-1.0996-1.6675-1.2354-.1343-.1738,.0571-.5059,.5732-.9961,2.4326-2.2422,4.5195-4.0342,6.2607-5.375Z"/><path d="M82.4077,365.2393c.6133-.0762,1.9316-.2041,3.9551-.3848,.2856,1.0537,1.0649,4.9561,2.3359,11.7061,1.1821,6.2803,1.8252,9.8408,1.9297,10.6836-7.6572,.1084-15.8047,2.2207-24.4438,6.3398-3.5698,1.7021-6.376,3.5879-8.4189,5.6572-2.042,2.0693-2.7378,3.7881-2.0864,5.1543,.7881,1.6523,3.2109,2.9053,7.2681,3.7559,4.3945,.9336,8.8291,.875,13.3037-.1768,3.3281-1.5869,9.4033-5.8633,18.2261-12.8281,.2759,5.6836,1.6167,11.0488,4.0229,16.0947,1.8389,3.8564,3.7847,6.1211,5.8354,6.793l-7.9741,4.207c-.8296-.6045-1.5439-1.5352-2.1431-2.792-.7354-1.542-1.1353-3.2314-1.1987-5.0674-6.1245,6.3281-15.4565,12.4814-27.9961,18.4609-.8809,.4199-2.1909,.9902-3.9302,1.7119-1.7388,.7207-3.0161,1.2754-3.8315,1.6641-1.4546,.6934-1.9702,1.9941-1.5474,3.9023,.2251,.8125,.5874,2.168,1.0869,4.0664,.1421,.5811-.7676,1.3398-2.729,2.2754-.3965,.1885-.9019,.3486-1.5161,.4785-.623-2.2715-4.0898-11.6406-10.3994-28.1064,6.769,1.2627,14.1313-.0029,22.0864-3.7959,1.0576-.5049,1.9185-.9688,2.5815-1.3936-5.6987,1.0947-11.376,1.0156-17.0312-.2363-4.5669-1.0137-8.7075-2.6914-12.4204-5.0322-3.1299-1.9697-5.0942-3.792-5.8926-5.4668-1.3765-2.8867-.5708-5.9619,2.417-9.2266,2.6865-2.9307,6.8511-5.7412,12.4922-8.4307,3.5483-1.6924,9.0767-3.584,16.585-5.6768,7.5088-2.0928,13.0146-3.9736,16.5186-5.6445,1.543-.7363,2.6812-1.4678,3.4155-2.1963-.0352-1.0381-.2021-3.2031-.501-6.4961Z"/><path d="M29.8843,322.0557c2.9917-.6035,5.2686-.1797,6.8325,1.2725,1.5635,1.4531,2.7778,4.3213,3.6431,8.6045,.9961,4.9307,1.1094,9.0664,.3398,12.4102-.7456,3.2139-2.1235,5.0244-4.1338,5.4307-1.0527,.2119-2.418,.0527-4.0947-.4814-2.9512-.9229-5.1289-3.0107-6.5332-6.2646-.5776-1.875-1.1655-3.7363-1.7632-5.584-.1963-.2344-.3901-.332-.582-.293-.9336,.1885-1.8208,1.5879-2.6636,4.1992-.9521,2.9326-1.1431,5.8105-.5728,8.6338,.8071,3.9971,2.9385,6.7168,6.3931,8.1611,2.9712,1.2676,6.5869,1.4717,10.8462,.6113,2.106-.4258,4.2666-1.0732,6.4814-1.9443,9.5933-3.6807,16.0483-7.0527,19.3652-10.1133,2.6914-2.4609,3.7344-5.1875,3.1299-8.1787-.2222-1.1006-.542-2.1943-.9614-3.2803-1.4961-3.832-3.6562-6.6338-6.4795-8.4053-1.3711-.8682-4.2148-2.001-8.5317-3.3955-.249-.248-.3022-.3867-.1587-.416,1.1436-.3809,2.1343-.6553,2.9717-.8242,4.2358-.8555,8.165-.7021,11.7866,.459,4.7676,1.5273,8.0767,4.6572,9.9292,9.3887,1.4863,3.7852,2.5298,7.1611,3.1289,10.1279,3.229,15.9863-5.5308,26.0742-26.2788,30.2646-10.0508,2.0303-18.1421,1-24.2739-3.0918-5.5273-3.6904-9.1152-9.6162-10.7637-17.7764-1.8657-9.2373-1.1611-16.541,2.1128-21.9092,2.5063-4.1182,6.1162-6.6533,10.8306-7.6055Z"/><path d="M54.9854,253.2314c.5366,.0259,.9253,.0811,1.1655,.166,6.4526,1.0195,10.8862,4.1294,13.2998,9.3291,1.8149,3.9248,2.5562,9.3623,2.2217,16.312-.0518,1.0732-.4639,5.563-1.2349,13.4692-.1387,1.3628-.4746,3.7661-1.0068,7.2109-.459,2.9355-.7251,5.1592-.7979,6.6709-.1475,3.0732,.3354,5.4795,1.4492,7.2197l-9.3516-.707c-.3525-.7988-.5015-1.7715-.4463-2.918,.0835-1.7305,.6763-3.6338,1.7778-5.707-9.8164,2.8516-24.0562,3.915-42.7197,3.1875-1.6836-.0566-2.8271,.5977-3.4307,1.9609-.2876,1.4043-.7202,3.0332-1.2983,4.8877-.3184,.5215-1.3677,.7402-3.1479,.6553-1.0972-.0527-1.7764-.1592-2.0381-.3184,.835-2.1104,1.8604-7.1572,3.0752-15.1406,1.2456-8.1035,1.9961-14.8135,2.2515-20.1299,.291-6.0474,.4614-13.3965,.5112-22.0469,2.4473,1.4624,5.1108,2.7393,7.9912,3.8311,2.4307,.8013,4.8486,1.6021,7.2539,2.4019,.0083,.3433,.042,1.1636,.1016,2.4614,.0732,1.0303,.0952,1.8379,.0669,2.4229-.0234,.4883-.1948,.7485-.5142,.7822-3.4722,.0288-5.9375,.4722-7.397,1.3306-2.2114,1.2627-3.4683,5.0273-3.7695,11.2939-.0234,.4883-.0439,2.9438-.0615,7.3667,3.2964,1.6011,7.3584,2.5171,12.187,2.7495,.8779,.042,2.0864,.0635,3.6265,.0645,1.54,.0005,2.627,.0161,3.2607,.0469-.0537-1.9331-.1201-3.5986-.1997-4.9961-.2275-3.3838-.5225-5.145-.8823-5.2852-.6245-.2251-1.2661-.354-1.9243-.3857-1.0977-.0527-2.1279,.2886-3.0923,1.0244-.6904,.6265-1.3804,1.2534-2.0703,1.8804-.5557-1.1509-1.0293-2.2368-1.4199-3.2583-.9082-2.4634-1.3496-4.4521-1.3262-5.9668,1.0239-.439,2.4131-.6172,4.1685-.5327,.5371,.0259,1.3398,.1016,2.4092,.2261,1.0698,.125,1.8604,.1997,2.3721,.2241,1.7808,.0859,4.8042-.2695,9.0708-1.0669,.4434-.0757,.7241-.0625,.8413,.0405,.0698,.0767,.0869,.2241,.0518,.4424-.3911,2.0347-.8032,5.5342-1.2383,10.4995-.2075,2.2881-.4028,4.564-.585,6.8281,8.46-.0571,14.3389-1.5952,17.6372-4.6143,2.8882-2.623,4.4883-7.1777,4.8003-13.6646,.0986-2.0483-.2114-3.9937-.9292-5.8374-.6309-1.6191-1.2144-2.4414-1.751-2.4673-.2681-.0132-.4155,.249-.4409,.7852-.0215,.439-.0186,1.0259,.0068,1.7603,.0259,.7344,.0264,1.3579,.0015,1.8701-.2285,4.7549-2.2075,7.7886-5.937,9.1001-.6211,.2144-1.249,.3066-1.8833,.2759-1.9019-.0913-3.5405-1.3438-4.9155-3.7563-1.4653-2.5635-2.4307-6.1172-2.8965-10.6616-.1304-1.3501-.1719-2.5254-.124-3.5259,.2607-5.4136,2.6714-8.0107,7.231-7.791Z"/><path d="M92.1807,170.2119c1.397,.644,2.4849,1.2002,3.2642,1.667,2.5835,1.5688,4.0869,4.0503,4.5103,7.4448,.3945,3.1665-.1855,6.4346-1.7402,9.8042-1.166,2.5269-2.7222,4.646-4.667,6.3564-6.7393,5.9248-11.1113,11.0601-13.1162,15.4048-1.043,2.2612-1.3638,4.2104-.9629,5.8472,.2148,.9326,.9653,1.6958,2.251,2.2886,.5762,.2661,1.2437,.48,2.0029,.6421-1.0229,2.9155-1.3843,5.5054-1.0835,7.7676-3.8057-.1426-7.3823-.9858-10.73-2.5303-5.4312-2.5059-9.2275-6.166-11.3887-10.981-2.3965-5.3535-2.2524-11.2026,.4321-17.5464,1.5337-3.6743,2.124-6.6152,1.771-8.8218-.4487-2.8145-2.4321-5.8003-5.9507-8.9561-2.3945-2.1533-4.4004-3.603-6.019-4.3501-2.2388-1.0327-4.1616-.8574-5.7676,.5254-1.2974,1.1226-2.8271,3.5356-4.5898,7.2393-1.106,2.3398-1.8589,4.6411-2.2573,6.9038-.3696,2.1421-.2886,3.335,.2432,3.5806,.2441,.1128,.5288-.0386,.8545-.4526,2.4688-3.1362,4.6943-5.3091,6.6772-6.5186,2.8711-1.7939,5.7256-2.0366,8.563-.7275,1.5078,.6958,2.3018,2.1509,2.3818,4.3657,.0615,2.314-.6592,5.1001-2.1626,8.3589-.7466,1.6187-1.6348,3.2524-2.6641,4.9009-3.6211,5.7505-7.3936,7.7207-11.3174,5.9102-3.458-1.5952-5.7373-4.4346-6.8379-8.5186-1.5576-5.7729-.25-13.1826,3.9224-22.2271,3.1396-6.8057,6.8477-11.8706,11.124-15.1948,4.9785-3.9141,10.0063-4.7002,15.0825-2.3579,10.6191,4.8989,12.8926,14.5117,6.8208,28.8369-2.8262,6.709-3.7773,12.4136-2.8545,17.1143,.8447,4.2886,3.1191,7.314,6.8232,9.0767-3.3169-3.708-3.4419-8.8877-.3735-15.5386,1.9946-4.3228,4.5298-7.7773,7.605-10.3647,.7456-.624,2.6538-1.9346,5.7261-3.9321,1.9272-1.2617,3.1763-2.5137,3.7495-3.7554,.9609-2.0835,.7656-3.4375-.5864-4.0615-2.2832-1.0532-5.3164,.1016-9.1001,3.4644-1.2759-5.8579-2.2324-9.8755-2.8691-12.0513,3.7905-1.3975,8.2017-.9351,13.2339,1.3867Z"/><path d="M109.5649,113.8608c6.604,5.2676,11.4175,10.9194,14.4419,16.9546,3.7437,7.4834,4.127,14.6753,1.1514,21.5771-.5815,1.3159-1.4663,2.7183-2.6538,4.207-3.6694,4.6001-8.7686,7.5273-15.2983,8.7832-6.9375,1.3369-13.6968,.3169-20.2788-3.0601-1.3657-.7148-2.6885-1.582-3.9673-2.6025-4.4658-3.5625-7.5566-8.1826-9.2729-13.8618-1.9038-6.2651-1.7144-12.688,.5679-19.269,2.0166-5.6992,4.3647-10.228,7.0444-13.5874,7.0488-8.8359,16.4707-8.5503,28.2656,.8589Zm2.1006,9.1704c-2.5195-2.0098-6.0278-2.1919-10.5244-.5483-4.4971,1.644-8.4048,4.5459-11.7236,8.7065-2.4209,3.0347-3.9614,6.9434-4.6221,11.7251-.6943,5.0991,.1133,8.5693,2.4224,10.4116,2.6724,2.1318,6.3916,2.3818,11.1592,.7505,4.4854-1.5117,8.0454-3.9189,10.6792-7.2207,3.2124-4.0269,5.0479-8.5591,5.5059-13.5967,.4736-4.8999-.4917-8.3096-2.8965-10.228Z"/><path d="M173.9106,89.8931c.9404,1.2173,1.6479,2.2139,2.1226,2.9878,1.5649,2.5859,1.75,5.4814,.5552,8.687-1.1152,2.9897-3.1411,5.6187-6.0781,7.8867-2.2026,1.7017-4.5625,2.8604-7.0776,3.4771-8.7158,2.1353-14.9678,4.6655-18.7544,7.5903-1.9712,1.5225-3.1572,3.1021-3.5591,4.7383-.2407,.9268,.0718,1.9502,.9375,3.0708,.3877,.502,.8804,1.0005,1.4785,1.4951-2.2554,2.1123-3.7739,4.2407-4.5537,6.3857-3.3081-1.8867-6.0889-4.2891-8.3423-7.2065-3.6562-4.7339-5.3291-9.7349-5.0176-15.0039,.3516-5.8545,3.1851-10.9736,8.4995-15.356,3.0596-2.5483,4.9434-4.8823,5.6509-7.0024,.9038-2.7031,.5269-6.2671-1.1328-10.6929-1.127-3.0166-2.2349-5.23-3.3242-6.6406-1.5073-1.9512-3.293-2.6855-5.3564-2.2021-1.6694,.395-4.1421,1.8267-7.418,4.2949-2.063,1.563-3.7949,3.2549-5.1948,5.0762-1.3188,1.7285-1.7988,2.8237-1.4404,3.2876,.1641,.2129,.4863,.2104,.9668-.0063,3.6392-1.6387,6.6177-2.5352,8.9351-2.6904,3.3755-.2622,6.0181,.8428,7.9282,3.3159,1.0151,1.3145,1.0459,2.9717,.0923,4.9722-1.0156,2.0806-2.9434,4.2173-5.7837,6.4106-1.4106,1.0898-2.9536,2.1274-4.6294,3.1128-5.8701,3.4233-10.126,3.4248-12.7671,.0049-2.3281-3.0142-3.0356-6.5859-2.1221-10.7158,1.2896-5.8384,5.876-11.8027,13.7593-17.8916,5.9316-4.5811,11.562-7.3564,16.8906-8.3257,6.2246-1.167,11.0454,.4619,14.4629,4.8862,7.1484,9.2554,4.7173,18.8296-7.292,28.7217-5.6089,4.6406-9.0908,9.2583-10.4473,13.853-1.2349,4.1924-.6182,7.9268,1.8506,11.2026-1.2251-4.8218,1.0601-9.4712,6.8564-13.9482,3.7681-2.9102,7.6138-4.8003,11.5371-5.6719,.9497-.2085,3.248-.4878,6.8955-.8374,2.292-.2271,3.979-.7593,5.061-1.5952,1.8159-1.4023,2.2695-2.6934,1.3589-3.8721-1.5366-1.9897-4.7603-2.3687-9.6704-1.1377,1.5786-5.7842,2.5889-9.7881,3.0312-12.0117,4.0068,.5146,7.7041,2.9648,11.0913,7.3511Z"/><path d="M215.3623,47.9697c3.4175,7.7256,5.0708,14.9629,4.96,21.7124-.1431,8.3662-3.1304,14.9199-8.9614,19.6621-1.1245,.8975-2.5576,1.7319-4.2988,2.5024-5.3813,2.3804-11.2563,2.6167-17.626,.7095-6.769-2.0244-12.29-6.0562-16.563-12.0947-.8804-1.2656-1.6514-2.6465-2.313-4.1426-2.3115-5.2241-2.9141-10.7505-1.8086-16.5791,1.2109-6.4355,4.3501-12.042,9.418-16.8203,4.4243-4.1196,8.6011-7.0488,12.5312-8.7871,10.3369-4.5728,18.5576,.0396,24.6616,13.8374Zm-2.3804,9.1021c-1.3037-2.9473-4.3296-4.7319-9.0767-5.355s-9.5542,.1421-14.4214,2.2954c-3.5503,1.5703-6.7241,4.3228-9.522,8.2568-2.9746,4.1987-3.8643,7.6494-2.6689,10.3506,1.3828,3.1265,4.5645,5.0688,9.5459,5.8281,4.6758,.7349,8.9453,.2476,12.8081-1.4614,4.7109-2.084,8.4346-5.2529,11.1714-9.5068,2.6865-4.125,3.4082-7.5942,2.1636-10.4077Z"/></g><circle cx="254.8887" cy="41.7471" r="17.5"/><circle cx="193.8887" cy="532.7471" r="17.5"/></svg>