<?xml version="1.0" encoding="UTF-8"?><svg xmlns="http://www.w3.org/2000/svg" width="1920" height="1783" xmlns:xlink="http://www.w3.org/1999/xlink" viewBox="0 0 1920 1783"><defs><style>.p{opacity:.43;}.q{clip-path:url(#m);}.r{clip-path:url(#d);}.s{stroke:#ff6e3e;stroke-miterlimit:4;stroke-width:7px;}.s,.t{fill:none;}.u{clip-path:url(#f);}.v{fill:#fffbff;}.w{clip-path:url(#i);}</style><clipPath id="d"><rect class="t" width="1920" height="1783"/></clipPath><clipPath id="f"><rect class="t" x="-138.399" y="65.4163" width="2585.5359" height="944.061" transform="translate(-42.4488 102.655) rotate(-5)"/></clipPath><clipPath id="i"><rect class="t" x="-138.399" y="65.4164" width="2585.533" height="944.061" transform="translate(-42.4489 102.6549) rotate(-5)"/></clipPath><clipPath id="m"><rect class="t" x="-138.399" y="65.4163" width="2585.5359" height="944.061" transform="translate(-42.4488 102.655) rotate(-5)"/></clipPath></defs><g id="a"/><g id="b"/><g id="c"><g class="r"><rect class="v" width="1920" height="1783"/><g id="e" transform="translate(0 225.344) rotate(-5)"><g class="u"><g id="g"><g id="h"><g class="w"><g id="j"><g id="k" class="p"><g id="l"><g class="q"><g id="n"><path id="o" class="s" d="M-108.1108,908.5227c34.1669,35.3035,93.5617,34.807,136.5005,11.0041,42.9388-23.8029,72.6041-65.6547,98.0699-107.6731,79.6938-131.6936,132.715-277.7723,156.0465-429.9234,11.4738-75.1169,15.2292-154.1459-13.3176-224.8037-1.6069-4.1861-4.7013-7.6324-8.6907-9.6794-13.0687-6.3903-23.7952,9.1256-28.5872,21.9099-50.4114,134.8284-68.594,279.5774-53.0956,422.685,4.9379,45.1615,23.682,100.393,68.8178,104.8923,42.8851,4.2786,72.0985-41.0972,90.6689-80.0419l125.7689-263.7772c24.6824-51.7642,61.5483-111.5126,118.8145-110.27,37.6569,.8211,70.0245,30.8072,83.9353,65.8692s12.6571,74.2223,8.1928,111.6809c-17.0308,142.8941-77.5619,281.4871-67.0414,425.0173,.7952,10.856,2.1062,22.0323,7.4574,31.5069,13.4761,23.8633,48.5752,27.5181,72.6452,14.4766,24.0699-13.0414,39.2971-37.7185,52.1112-61.9365,70.2543-132.7743,87.5873-301.1387,172.9631-423.427,8.4055-11.9811,24.9321-14.8797,36.9132-6.4743,1.6502,1.1577,3.1629,2.5,4.5088,4.0007,.2226,.2482,.4494,.4981,.681,.7495,19.0875,20.8236,52.89,17.0823,67.4169-7.1439,75.5381-125.9629,164.4529-252.3633,301.251-299.7654,25.7971-8.9394,55.8421-14.2893,79.2186-.159,35.9615,21.7385,34.8336,73.4435,29.2454,115.1292l-16.0218,119.5925c-3.6654,27.3596-6.8766,57.1338,7.2294,80.8536,27.9723,47.041,100.5481,36.4925,146.0953,6.2457s85.6572-75.0923,139.8947-81.838c66.4575-8.2666,128.0891,49.3551,143.0881,114.7316s-6.804,133.9889-38.8365,192.8878c-80.9209,148.803-240.1571,260.3598-409.2801,255.3739-43.0887-1.2714-87.1979-10.3396-122.7292-34.7908s-60.9832-66.3886-57.5066-109.4224c6.6131-81.888,111.583-123.0634,190.1702-99.5171s136.9648,87.587,198.0905,142.3851c92.7825,83.177,210.9377,152.5661,334.7431,139.4208,68.8718-7.3124,132.7456-39.6936,190.2024-78.4046,133.4781-89.9185,241.3207-217.5604,307.7827-364.2852"/></g></g></g></g></g></g></g></g></g></g></g></g></svg>