<?xml version="1.0" encoding="UTF-8"?><svg xmlns="http://www.w3.org/2000/svg" width="2563.7028" height="1819" xmlns:xlink="http://www.w3.org/1999/xlink" viewBox="0 0 2563.7028 1819"><defs><style>.ah{opacity:.71;}.ah,.ai,.aj{fill:none;}.ah,.aj{isolation:isolate;}.ak{clip-path:url(#c);}.aj{opacity:.43;stroke:#ff6e3e;stroke-width:7px;}</style><clipPath id="c"><rect class="ai" x="2.869" width="1920" height="1819"/></clipPath></defs><g id="a"/><g id="b"><g class="ak"><path class="aj" d="M2.484,875.6656c34.3476,34.6032,93.8771,33.7631,136.8443,10.0439,42.9673-23.7192,72.5766-65.1544,97.9782-106.7287,79.3079-129.8017,132.3622-275.0565,155.1445-424.7625,11.28-74.1227,14.8129-152.0561-14.0054-221.5455-1.6926-4.0815-4.7078-7.5782-8.7394-9.4908-13.1166-6.2226-23.8184,9.1366-28.588,21.7683-50.0482,132.5464-68.0111,276.6563-51.9802,417.0195,5.0816,44.4933,24.0304,98.8326,69.2826,103.0024,42.9945,3.9618,72.1427-40.9406,90.6404-79.4448,41.7615-86.9293,83.523-173.8586,125.2845-260.7879,24.5858-51.177,61.3623-110.2977,118.7622-109.4101,37.7451,.5837,70.2738,29.9586,84.3197,64.4422s12.9037,73.0974,8.5388,110.0519c-16.6513,140.9739-76.9137,277.9625-65.9506,419.4009,.8292,10.698,2.1762,21.7079,7.5673,31.0181,13.5764,23.4455,48.7668,26.8414,72.8527,13.8427s39.276-37.4161,52.0488-61.3671c70.026-131.3099,86.9102-297.3957,172.1185-418.4573,9.7464-13.8474,30.0145-15.0997,41.5089-2.682,.2268,.245,.4549,.4896,.6844,.7338,19.1879,20.4176,53.0611,16.5287,67.5503-7.4399,75.3407-124.6309,164.09-249.7629,301.0602-297.3022,25.8299-8.965,55.9279-14.4159,79.3986-.6234,36.1069,21.2183,35.1275,72.1956,29.652,113.3281-5.2358,39.3316-10.4716,78.6631-15.7074,117.9947-3.5935,26.9949-6.7259,56.3656,7.482,79.6679,28.1737,46.2074,100.8839,35.3825,146.4464,5.2956,45.5626-30.0869,85.633-74.5347,139.9742-81.5052,66.5843-8.541,128.5242,47.9013,143.7488,112.2644,15.2245,64.3631-6.427,132.1341-38.3572,190.388-80.6697,147.1748-239.9433,258.0935-409.4665,254.1749-43.1905-.9984-87.4261-9.6744-123.1105-33.5743-35.6844-23.8999-61.3163-65.0902-57.9584-107.5357,6.3892-80.7644,111.4768-121.98,190.3132-99.2306,78.8364,22.7494,137.5335,85.5404,198.9587,139.2025,93.237,81.4535,211.865,149.1643,335.9135,135.4748,69.0074-7.6154,132.9272-39.9152,190.4072-78.417,133.5183-89.4346,241.2336-215.9061,307.4177-360.9478"/><g id="d" transform="translate(-2720.5 280)"><path id="e" d="M241.4261,248.182l6.7,24.052h-13.4l6.7-24.052Z"/><path id="f" d="M241.4182,296.286l-6.7-24.052h13.4l-6.7,24.052Z"/><path id="g" d="M217.3702,272.23l24.052-6.7v13.4l-24.052-6.7Z"/><path id="h" d="M265.4742,272.238l-24.052,6.7v-13.4l24.052,6.7Z"/></g><g id="i" transform="translate(-2720.5 280)"><path id="j" d="M241.5538,936.182l6.7,24.052h-13.4l6.7-24.052Z"/><path id="k" d="M241.5459,984.286l-6.7-24.052h13.4l-6.7,24.052Z"/><path id="l" d="M217.4978,960.23l24.052-6.7v13.4l-24.052-6.7Z"/><path id="m" d="M265.6018,960.238l-24.052,6.7v-13.4l24.052,6.7Z"/></g><g id="n" transform="translate(-2720.5 507.117)"><path id="o" d="M112.1837,1165.6554l12.65,45.435h-25.3l12.65-45.435Z"/><path id="p" d="M112.1818,1256.5254l-12.65-45.435h25.3l-12.65,45.435Z"/><path id="q" d="M66.7478,1211.0904l45.435-12.65v25.3l-45.435-12.65Z"/><path id="r" d="M157.618,1211.0914l-45.435,12.65v-25.3l45.435,12.65Z"/></g><g id="s" transform="translate(-2590.5 589.935)"><path id="t" d="M1817.5538,1365.107l6.7,24.052h-13.4l6.7-24.052Z"/><path id="u" d="M1817.5459,1413.211l-6.7-24.052h13.4l-6.7,24.052Z"/><path id="v" d="M1793.4978,1389.155l24.052-6.7v13.4l-24.052-6.7Z"/><path id="w" d="M1841.6018,1389.163l-24.052,6.7v-13.4l24.052,6.7Z"/></g><g id="x" transform="translate(-2720.5 280)"><path id="y" d="M1708.9337,1055.172l12.65,45.435h-25.3l12.65-45.435Z"/><path id="a`" d="M1708.9318,1146.042l-12.65-45.435h25.3l-12.65,45.435Z"/><path id="aa" d="M1663.4978,1100.607l45.435-12.65v25.3l-45.435-12.65Z"/><path id="ab" d="M1754.368,1100.608l-45.435,12.65v-25.3l45.435,12.65Z"/></g><g id="ac" transform="translate(-2720.5 280)"><path id="ad" d="M1731.5538,497.4161l6.7,24.052h-13.4l6.7-24.052Z"/><path id="ae" d="M1731.5459,545.5201l-6.7-24.052h13.4l-6.7,24.052Z"/><path id="af" d="M1707.4978,521.4641l24.052-6.7v13.4l-24.052-6.7Z"/><path id="ag" d="M1755.6018,521.4721l-24.052,6.7v-13.4l24.052,6.7Z"/></g><path class="ah" d="M498.5318,647.9032l-15.0637-.1863c34.3062-34.0744,83.5126-52.5854,131.7713-49.5712s94.7792,27.5043,124.5788,65.5828c22.6824,28.984,36.1067,65.2661,63.3106,90.0553,37.7434,34.3932,92.7393,39.1478,142.4312,50.9025,61.9691,14.6588,123.782,45.4999,156.9827,99.8392,32.3025,52.8691,38.5551,127.2825,92.9658,156.9146,26.0549,14.1895,57.2162,13.9415,86.2738,19.9291,80.7882,16.6472,147.1165,88.382,157.3952,170.2247,4.4113,35.1245-.5962,70.6725-5.5962,105.7181-3.4596,24.2483-9.8019,52.4893-32.2353,62.3225"/><path class="ah" d="M498.5318,647.9032l-15.0637-.1863c34.3062-34.0744,83.5126-52.5854,131.7713-49.5712s94.7792,27.5043,124.5788,65.5828c22.6824,28.984,36.1067,65.2661,63.3106,90.0553,37.7434,34.3932,92.7393,39.1478,142.4312,50.9025,61.9691,14.6588,123.782,45.4999,156.9827,99.8392,32.3025,52.8691,38.5551,127.2825,92.9658,156.9146,26.0549,14.1895,57.2162,13.9415,86.2738,19.9291,80.7882,16.6472,147.1165,88.382,157.3952,170.2247,4.4113,35.1245-.5962,70.6725-5.5962,105.7181-3.4596,24.2483-9.8019,52.4893-32.2353,62.3225"/></g></g></svg>