<?xml version="1.0" encoding="UTF-8"?><svg id="a" xmlns="http://www.w3.org/2000/svg" width="250" height="250" viewBox="0 0 250 250"><defs><style>.b{fill:#fff;}</style></defs><g><path class="b" d="M33.6582,100.0986h95.7817c7.2619,0,13.1577,5.8958,13.1577,13.1577v95.7837c0,7.2617-5.8956,13.1572-13.1572,13.1572H33.6582c-7.2622,0-13.1582-5.896-13.1582-13.1582V113.2568c0-7.2622,5.896-13.1582,13.1582-13.1582Z"/><path d="M129.4403,103.5988c5.3253,0,9.6578,4.3325,9.6578,9.6578v95.7824c0,5.3253-4.3325,9.6578-9.6578,9.6578H33.6578c-5.3253,0-9.6578-4.3325-9.6578-9.6578V113.2566c0-5.3253,4.3325-9.6578,9.6578-9.6578h95.7824m0-7H33.6578c-9.1618,0-16.6578,7.496-16.6578,16.6578v95.7824c0,9.1618,7.496,16.6578,16.6578,16.6578h95.7824c9.1618,0,16.6578-7.496,16.6578-16.6578V113.2566c0-9.1618-7.496-16.6578-16.6578-16.6578h0Z"/></g><g><path d="M51.7036,146.0723c-6.6133,0-11.9932-5.3799-11.9932-11.9932s5.3799-11.9937,11.9932-11.9937,11.9937,5.3804,11.9937,11.9937-5.3804,11.9932-11.9937,11.9932Z"/><path d="M51.7038,122.5855c6.3375,0,11.4934,5.1559,11.4934,11.4934s-5.1559,11.4933-11.4934,11.4933-11.4934-5.1559-11.4934-11.4933,5.1559-11.4934,11.4934-11.4934m0-1c-6.8999,0-12.4934,5.5935-12.4934,12.4934s5.5935,12.4933,12.4934,12.4933,12.4934-5.5935,12.4934-12.4933-5.5935-12.4934-12.4934-12.4934h0Z"/></g><g><path d="M108.6182,202.9863c-6.6133,0-11.9937-5.3799-11.9937-11.9932s5.3804-11.9932,11.9937-11.9932,11.9932,5.3799,11.9932,11.9932-5.3799,11.9932-11.9932,11.9932Z"/><path d="M108.618,179.4997c6.3375,0,11.4934,5.1559,11.4934,11.4933s-5.1559,11.4934-11.4934,11.4934-11.4934-5.1559-11.4934-11.4934,5.1559-11.4933,11.4934-11.4933m0-1c-6.8999,0-12.4934,5.5935-12.4934,12.4933s5.5935,12.4934,12.4934,12.4934,12.4934-5.5935,12.4934-12.4934-5.5935-12.4933-12.4934-12.4933h0Z"/></g><g><g><path class="b" d="M190.8545,171.7314c-1.5059,0-2.9922-.2607-4.4189-.7744l-90.1167-32.4521c-6.8262-2.459-10.3799-10.0117-7.9214-16.8374L120.8506,31.5503c1.8721-5.2012,6.8633-8.6958,12.4189-8.6958,1.5059,0,2.9922,.2607,4.418,.7739l90.1172,32.4526c6.8262,2.458,10.3799,10.0112,7.9219,16.8379l-32.4531,90.1172c-1.8721,5.2002-6.8633,8.6953-12.4189,8.6953Z"/><path d="M133.2702,26.3547h0c1.0999,0,2.1873,.1907,3.2316,.5667l90.1172,32.4526c2.4098,.8678,4.3448,2.6378,5.4485,4.9838,1.1037,2.346,1.2337,4.9652,.3659,7.375l-32.4526,90.1171c-1.3745,3.8167-5.0423,6.3811-9.1269,6.3811-1.1002,0-2.1876-.1907-3.2319-.5667l-90.1172-32.4526c-5.0103-1.8043-7.6186-7.3484-5.8143-12.3588L124.1429,32.7358c1.3745-3.8167,5.0424-6.3811,9.1273-6.3811m-.0004-7c-6.8304,0-13.2741,4.2372-15.7129,11.0094l-32.4526,90.1172c-3.1042,8.6199,1.4087,18.2123,10.0286,21.3165l90.1172,32.4526c1.8477,.6654,3.74,.9808,5.6036,.9808,6.8304,0,13.2741-4.2372,15.7129-11.0094l32.4526-90.1172c3.1042-8.6199-1.4087-18.2123-10.0287-21.3165L138.8734,20.3354c-1.8477-.6654-3.74-.9808-5.6036-.9808h0Z"/></g><g><path d="M143.1523,73.7095c-1.3828,0-2.75-.2397-4.0635-.7124-6.2217-2.2412-9.4609-9.126-7.2197-15.3477,1.709-4.7451,6.2432-7.9331,11.2842-7.9331,1.3828,0,2.75,.2397,4.0635,.7124,3.0137,1.0854,5.4248,3.2798,6.7881,6.1787,1.3643,2.8984,1.5176,6.1548,.4316,9.1689-1.709,4.7451-6.2432,7.9331-11.2842,7.9331Z"/><path d="M143.1543,50.2162h0c1.3243,0,2.6342,.2299,3.893,.6832,2.8884,1.0402,5.1989,3.1429,6.5058,5.9208,1.3069,2.7779,1.4538,5.8985,.4136,8.7869-1.6376,4.5474-5.9835,7.6026-10.8142,7.6026-1.3247,0-2.6346-.2299-3.8935-.6832-2.8884-1.0402-5.1989-3.1429-6.5058-5.9208-1.3069-2.7779-1.4538-5.8985-.4136-8.7869,1.6375-4.5472,5.9836-7.6025,10.8147-7.6026m-.0005-1c-5.1189,.0002-9.9208,3.1703-11.755,8.2638-2.3378,6.4918,1.0297,13.6496,7.5215,15.9874,1.3983,.5035,2.827,.7423,4.2323,.7423,5.1189,0,9.9208-3.1703,11.755-8.2638,2.3378-6.4918-1.0297-13.6496-7.5215-15.9874-1.3983-.5035-2.827-.7424-4.2323-.7423h0Z"/></g><g><path d="M196.7002,92.9932c-1.3828,0-2.75-.2397-4.0635-.7124-6.2217-2.2412-9.4609-9.126-7.2197-15.3481,1.709-4.7451,6.2441-7.9331,11.2852-7.9331,1.3818,0,2.749,.2397,4.0625,.7124,3.0137,1.0854,5.4248,3.2798,6.7881,6.1787,1.3643,2.8989,1.5176,6.1553,.4316,9.1694-1.708,4.7451-6.2432,7.9331-11.2842,7.9331Z"/><path d="M196.7022,69.4996h0c1.3243,0,2.6342,.2299,3.8931,.6832,5.9626,2.1472,9.0667,8.7451,6.9194,14.7077-1.6376,4.5474-5.9835,7.6026-10.8142,7.6026-1.3247,0-2.6346-.2299-3.8935-.6832-5.9626-2.1472-9.0667-8.7451-6.9194-14.7077,1.6375-4.5472,5.9836-7.6025,10.8147-7.6026m-.0005-1c-5.1189,.0002-9.9208,3.1703-11.7551,8.2638-2.3378,6.4918,1.0297,13.6496,7.5215,15.9874,1.3983,.5035,2.827,.7423,4.2323,.7423,5.1189,0,9.9208-3.1703,11.7551-8.2638,2.3378-6.4918-1.0297-13.6496-7.5215-15.9874-1.3983-.5035-2.8271-.7424-4.2323-.7423h0Z"/></g><g><path d="M177.417,146.541c-1.3828,0-2.75-.2393-4.0635-.7129-3.0137-1.085-5.4238-3.2793-6.7881-6.1787-1.3643-2.8984-1.5176-6.1543-.4316-9.1689,1.709-4.7451,6.2432-7.9326,11.2842-7.9326,1.3828,0,2.75,.2397,4.0635,.7124,3.0137,1.0854,5.4248,3.2798,6.7881,6.1782,1.3643,2.8984,1.5176,6.1553,.4316,9.1699-1.709,4.7451-6.2441,7.9326-11.2842,7.9326Z"/><path d="M177.4188,123.0475h0c1.3243,0,2.6342,.2299,3.8931,.6832,2.8884,1.0401,5.1989,3.1429,6.5058,5.9208,1.3069,2.7779,1.4538,5.8985,.4136,8.7869-1.6376,4.5474-5.9835,7.6026-10.8142,7.6026-1.3247,0-2.6346-.2299-3.8935-.6832-5.9626-2.1472-9.0667-8.7451-6.9194-14.7077,1.6375-4.5472,5.9836-7.6025,10.8147-7.6026m-.0005-1c-5.1189,.0002-9.9208,3.1703-11.755,8.2638-2.3378,6.4918,1.0297,13.6496,7.5215,15.9874,1.3983,.5035,2.827,.7424,4.2323,.7424,5.1189,0,9.9208-3.1703,11.7551-8.2638,2.3378-6.4918-1.0297-13.6496-7.5215-15.9874-1.3983-.5035-2.827-.7424-4.2323-.7424h0Z"/></g><g><path d="M123.8691,127.2578c-1.3828,0-2.75-.2393-4.0635-.7129-6.2217-2.2407-9.4604-9.126-7.2202-15.3477,1.709-4.7451,6.2441-7.9331,11.2847-7.9331,1.3828,0,2.75,.2397,4.0635,.7124,3.0137,1.0854,5.4248,3.2798,6.7881,6.1787,1.3643,2.8984,1.5176,6.1548,.4316,9.1689-1.709,4.7456-6.2441,7.9336-11.2842,7.9336Z"/><path d="M123.8709,103.7641h0c1.3243,0,2.6342,.2299,3.893,.6832,5.9626,2.1472,9.0667,8.7451,6.9194,14.7077-1.6376,4.5474-5.9835,7.6026-10.8142,7.6026-1.3247,0-2.6346-.2299-3.8935-.6832-2.8884-1.0401-5.1989-3.1429-6.5058-5.9208-1.3069-2.7779-1.4538-5.8985-.4137-8.7869,1.6375-4.5472,5.9836-7.6025,10.8147-7.6026m-.0005-1c-5.1189,.0002-9.9208,3.1703-11.7551,8.2638-2.3378,6.4918,1.0297,13.6496,7.5215,15.9874,1.3983,.5035,2.8271,.7424,4.2323,.7424,5.1189,0,9.9208-3.1703,11.755-8.2638,2.3378-6.4918-1.0297-13.6496-7.5215-15.9874-1.3983-.5035-2.827-.7424-4.2323-.7423h0Z"/></g></g></svg>