<?xml version="1.0" encoding="UTF-8"?><svg id="a" xmlns="http://www.w3.org/2000/svg" width="48" height="48" viewBox="0 0 48 48"><defs><style>.b{fill:#ff0f55;}</style></defs><path class="b" d="M28.6816,22.4217c-.2695,.2993-.6616,.6489-1.1782,1.0479-.5166,.3994-1.1626,.7734-1.9375,1.1226s-1.6846,.6436-2.728,.8828c-1.0439,.2393-2.2271,.3594-3.5493,.3594-2.0879,0-3.8857-.3145-5.394-.9429-1.5088-.6289-2.749-1.4565-3.7202-2.4844-.9717-1.0278-1.6895-2.2046-2.1543-3.5322-.4648-1.3267-.6978-2.6885-.6978-4.0854,0-1.6162,.2896-3.0776,.8682-4.3848s1.395-2.4248,2.4492-3.3525c1.0537-.9277,2.3193-1.6411,3.7974-2.1401,1.4771-.4985,3.1152-.748,4.9136-.748,1.2397,0,2.3452,.1196,3.3169,.3589,.9712,.2397,1.8184,.5688,2.542,.9878,.7231,.4189,1.3276,.918,1.8135,1.4966,.4854,.5791,.8833,1.2075,1.1934,1.8857h-2.2939c-.1445-.4189-.3979-.833-.7593-1.2422-.3618-.4087-.8271-.7729-1.395-1.0923-.5688-.3193-1.2197-.5786-1.9531-.7783-.7339-.1992-1.5449-.2993-2.4336-.2993-1.3018,0-2.5059,.2295-3.6113,.6885-1.106,.459-2.0615,1.0977-2.8677,1.9155-.8057,.8184-1.4312,1.791-1.8755,2.9185s-.6665,2.3696-.6665,3.7261c0,1.2773,.2119,2.5044,.6357,3.6816,.4233,1.1777,1.0483,2.2148,1.8755,3.1128,.8262,.8979,1.8599,1.6167,3.1001,2.1553,1.2397,.5386,2.666,.8081,4.2778,.8081,2.8931,0,5.394-.9575,7.502-2.8735l.9302,.8081Z"/><path class="b" d="M38.4492,19.429v15.0259c0,.6387-.0527,1.3271-.1562,2.0649-.1035,.7388-.3555,1.4219-.7578,2.0503-.4043,.6289-1.0195,1.1479-1.8457,1.5566-.8262,.4092-1.9531,.6143-3.3789,.6143-1.9844,0-3.4717-.4199-4.4639-1.2578-.9917-.8379-1.5088-2.0249-1.5498-3.562h2.7275c0,.3198,.0566,.6841,.1699,1.0928,.1133,.4092,.2979,.793,.5557,1.1523,.2568,.3589,.6064,.6582,1.0488,.8979,.4414,.2393,1.0029,.3589,1.6816,.3589,.7812,0,1.3828-.1646,1.8047-.4937s.7363-.7378,.9414-1.2271c.2051-.4888,.3242-1.0181,.3555-1.5864,.0312-.5688,.0449-1.0928,.0449-1.5713v-15.1157h2.8223Z"/></svg>