<?xml version="1.0" encoding="UTF-8"?><svg id="a" xmlns="http://www.w3.org/2000/svg" width="868.5699" height="699.907" viewBox="0 0 868.5699 699.907"><defs><style>.b{fill:none;stroke:#f21050;stroke-width:5px;}</style></defs><g><path class="b" d="M80.0338,601.462c-.1658,12.0842-3.1854,25.0662-11.4589,34.3588-8.0706,9.0645-19.9943,13.5842-31.9185,14.9245-4.0355,.5172-6.0532,.7844-10.0887,1.3367-.1511,14.2-.3019,28.3998-.4526,42.5998-9.4164,.1225-14.1246,.1882-23.541,.3291,.4485-36.9727,.8972-73.9454,1.3462-110.9181,11.623-4.6765,23.4179-8.925,35.3528-12.736,9.6731-3.3572,22.0552-4.8842,30.5321,1.4354,8.4193,6.2766,10.3658,18.6776,10.2286,28.6698Zm-53.245,29.869c3.0932-.6039,4.6398-.8983,7.733-1.4724,7.2274-1.3414,12.6506-3.8482,16.2703-7.7427,3.6188-3.8943,5.4568-9.0313,5.515-15.3213,.0587-6.3467-1.4017-10.7191-4.3771-13.0026-2.9748-2.283-7.6714-2.5792-14.0836-.8381-4.2719,1.16-6.4078,1.7611-10.6797,3.0078-.1262,11.7898-.2521,23.5796-.3779,35.3693Z"/><path class="b" d="M201.3664,617.8611c-.0939,18.8933-3.1354,41.009-13.9415,57.4594-8.5005,12.9404-24.0908,19.9263-39.2887,20.3491-15.0991,.42-30.1601-6.7853-39.0507-18.8158-10.7244-14.5119-13.4046-34.9476-13.259-52.5105,.1516-18.291,3.4832-38.9322,14.0723-54.3483,8.8201-12.8408,23.5032-22.2978,39.3074-23.6501,14.4855-1.2394,30.3364,3.8003,38.9202,16.0771,10.86,15.5321,13.3298,37.3796,13.2401,55.439Zm-80.8999,4.2487c-.0889,11.8303,.8572,25.1182,6.8094,35.5799,4.4924,7.8959,11.7774,11.9926,21.0189,11.6494,24.4211-.907,28.889-31.4233,28.4301-50.7298-.4094-17.2242-2.3503-49.8663-27.6762-47.1996-9.2222,.9711-16.5418,5.7707-21.213,14.2751-5.9652,10.8603-7.2775,24.232-7.3692,36.425Z"/><path class="b" d="M247.7755,635.0837c-.0756,19.447-.1501,38.894-.2234,58.3411-9.4164-.0004-14.1246,.0014-23.541,.0098,.2116-49.5688,.4297-99.1375,.6557-148.7062,10.7628,.0653,21.4906,.2578,32.249,.572,11.9496,.236,25.4171,3.4379,33.3511,12.1365,7.93,8.6942,10.8505,21.8911,10.7339,33.9028-.0802,8.2656-1.8398,15.4785-5.4479,21.602-3.609,6.1234-8.7055,11.0712-15.2896,14.7864,10.8361,21.9736,21.1961,44.1901,32.4439,65.9586-10.4491-.1069-15.6736-.2202-26.1227-.2341-8.7047-19.4549-17.4664-38.8831-26.2941-58.2825-5.006-.0474-7.5089-.0649-12.5149-.0864Zm.1004-25.6393c3.0323,.0258,4.5484,.0421,7.5807,.0815,7.4291,.0964,12.9183-1.436,16.4671-4.6221,3.5478-3.1835,5.3341-8.2495,5.3576-15.1747,.0233-6.8583-1.7669-11.7672-5.3665-14.7781-3.599-3.0105-9.1875-4.6547-16.7618-4.8374-2.848-.0687-4.2719-.0988-7.1199-.1499-.053,13.1602-.1054,26.3204-.1573,39.4807Z"/><path class="b" d="M369.5093,694.3004c-9.4164-.1061-14.1246-.1586-23.541-.2615,.074-36.7931,.1495-73.5862,.2269-110.3793-10.0056-2.2557-20.0309-4.442-30.0702-6.5432,.0261-9.665,.0391-14.4623,.0652-23.9861,27.985,6.9463,55.8049,14.4587,83.5748,22.2166-.0076,8.3041-.0115,12.4665-.0191,20.8119-10.0148-2.4088-20.0379-4.7875-30.0703-7.1225-.0565,35.088-.1119,70.176-.1665,105.264Z"/><path class="b" d="M439.9045,695.1145c-9.2645-.1083-13.8968-.1625-23.1613-.2706,.0182-38.2309,.0365-76.4618,.0549-114.6927,21.14,5.996,42.275,12.0084,63.4382,17.9224,.0099,6.9296,.015,10.3812,.025,17.2576-13.466-3.2139-26.9202-6.4771-40.3711-9.7537,.0018,11.2003,.0027,16.7968,.0045,27.9827,12.5303,2.2316,25.0621,4.4552,37.5989,6.65,.0093,6.821,.014,10.2192,.0234,16.9907-12.5418-1.6115-25.0809-3.2438-37.6192-4.882l.0068,42.7956Z"/><path class="b" d="M602.605,662.1017c.1278,10.4881-4.3835,20.7633-13.4633,26.5442-11.8157,7.5227-25.6748,8.2872-39.1217,8.7216-13.5841,.4388-28.863-2.7357-39.2178-11.7731-9.9908-8.7198-13.66-22.9567-13.7384-35.8671-.0718-11.8221,3.0984-25.8782,13.5944-32.5918,11.815-7.5573,26.4528-4.8587,39.1418-2.0158,13.5175,3.0284,27.8932,9.3934,39.0859,17.9584,8.8478,6.7706,13.5836,17.9108,13.719,29.0236Zm-80.8999-8.5103c.0305,9.6968,2.4045,17.1548,7.1257,22.2151,4.7212,5.0619,12.0553,7.4144,21.1251,8.184,14.4412,1.2253,28.2808-6.6895,28.0074-22.5224-.277-16.0428-12.6852-28.4947-28.0996-31.4142-9.1603-1.735-16.3757-1.1589-21.1062,2.817-4.7315,3.9757-7.0829,11.0254-7.0525,20.7205Z"/><path class="b" d="M625.878,696.6727c-.2166-23.7885-.411-47.5771-.5975-71.3658,9.3871,.1944,14.0806,.2343,23.4677,.1746,.1759,19.8236,.3567,39.6471,.5535,59.4705,15.0039-.105,30.0048-.2745,45.0071-.5146,.0568,4.9012,.0852,7.3263,.1421,12.1254-22.8575,.0661-45.7151,.1009-68.5728,.1099Z"/><path class="b" d="M713.7391,696.491c-.3032-24.7247-.5927-49.4496-.8716-74.1746,9.3871-.9037,14.0806-1.4404,23.4675-2.7079,.3046,25.5891,.6189,51.178,.9451,76.7668-9.4164,.0527-14.1246,.0757-23.541,.1157Z"/><path class="b" d="M865.3209,640.4764c.8746,14.593-3.2275,30.9965-13.15,42.4123-9.5063,10.9373-25.416,13.8395-39.0121,14.1107-13.407,.2674-28.3398-2.5968-39.3271-10.5264-9.4824-6.8435-13.9591-18.4518-14.0533-29.9061-.1011-12.2953,4.3781-24.6025,13.282-33.2828,10.5248-10.2605,24.9906-17.2256,39.0337-20.7178,12.7269-3.1649,27.6051-6.9242,39.1948,.9793,11.9277,8.134,13.236,23.6484,14.0321,36.931Zm-80.8998,13.498c.1222,9.4856,2.5653,16.3133,7.3329,20.8176,4.7676,4.5059,11.9432,6.5259,21.1947,6.1013,19.8464-.9108,27.7848-17.6835,27.7307-35.4994-.0507-16.6973-10.0363-31.7491-28.377-26.4406-8.8143,2.5512-16.3524,6.3116-21.0363,12.1544-4.6849,5.843-6.9673,13.3826-6.8451,22.8666Z"/></g><g><path class="b" d="M81.4941,428.9098c.542,12.3007-3.766,25.7086-11.4128,36.1422-8.0966,11.0472-19.5866,19.1265-31.7875,25.1469-4.0189,2.039-6.0283,3.0959-10.0471,5.2879-.1511,14.0049-.3021,28.0098-.4528,42.0148-9.3777,4.1557-14.0665,6.3971-23.4442,11.2388,.4486-36.9195,.8974-73.839,1.3464-110.7585,11.4117-9.3231,23.0129-18.0356,35.2069-26.3088,8.2571-5.7247,20.7043-12.0053,30.4057-7.7601,9.1418,4.0003,9.8253,16.8223,10.1854,24.9968Zm-53.0263,46.1118c3.0804-1.8275,4.6206-2.716,7.701-4.4441,7.1976-4.0377,12.5986-8.3203,16.2035-13.2993,3.604-4.9785,5.4347-10.5185,5.4929-16.6362,.0587-6.1729-1.3961-9.9742-4.3585-11.2543-2.9623-1.28-7.6396-.0772-14.0253,3.8834-4.2543,2.6387-6.3814,4.0115-10.6357,6.8694-.1261,11.627-.2521,23.254-.3779,34.881Z"/><path class="b" d="M202.3259,430.5055c-.1054,17.8033-3.6166,38.2821-13.8853,53.032-8.7907,12.6269-24.252,19.9025-39.1276,22.1807-13.7205,2.1013-29.05-.973-38.8895-11.3405-11.744-12.3741-12.8511-31.3962-13.2026-47.2148-.4098-18.4401,3.8752-38.6808,14.0159-54.3969,8.6527-13.4099,22.9647-24.3854,39.1457-26.7621,14.0393-2.0621,29.9019,1.9938,38.7592,13.6562,10.3605,13.6418,13.284,34.0148,13.1843,50.8454Zm-80.5665,9.9226c-.1031,10.7761,.701,23.3373,6.7803,32.5293,4.448,6.7254,11.6663,9.3165,20.932,8.092,23.4984-3.1054,28.1752-30.0293,28.3142-49.4067,.1196-16.6793-3.8475-46.4688-27.5609-42.225-9.1619,1.6396-16.4526,6.9393-21.1259,15.5728-5.7603,10.6417-7.226,23.532-7.3398,35.4376Z"/><path class="b" d="M248.5436,447.844c-.0755,17.4496-.15,34.8992-.2234,52.3488-9.3777-.4155-14.0665-.5502-23.4442-.6413,.2109-44.8584,.429-89.7168,.6557-134.5751,10.7925,.9573,21.3878,2.1857,32.1159,3.7038,12.1718,1.7608,25.1847,6.4283,33.2133,15.4231,7.4127,8.3047,10.7802,20.3333,10.6893,31.7521-.0581,7.2965-1.8325,13.262-5.4257,17.8627-3.5942,4.6003-8.6698,8.0513-15.2268,10.5749,11.3079,21.5624,21.5496,43.6217,32.3098,65.457-10.4062-3.0841-15.6093-5.8959-26.0154-6.8596-8.6826-18.0226-17.4016-36.0278-26.1851-54.0015-4.9854-.4709-7.478-.6812-12.4633-1.0449Zm.1003-22.9475c3.0198,.2662,4.5297,.4107,7.5494,.7208,7.3985,.7598,12.8651-.0017,16.3994-2.4099,3.5332-2.406,5.3123-6.637,5.3358-12.7256,.0233-6.0299-1.7594-10.5844-5.3441-13.7018-3.5843-3.117-9.1496-5.29-16.6926-6.2745-2.8362-.3702-4.2543-.5446-7.0905-.8705-.0531,11.7538-.1055,23.5077-.1573,35.2615Z"/><path class="b" d="M369.7759,527.7356c-9.3777-3.1465-14.0665-4.6966-23.4442-7.7181,.0738-33.7338,.1494-67.4675,.2269-101.2012-9.9481-4.2494-19.9124-8.3913-29.9462-12.4341,.0261-8.6097,.0391-12.8794,.0652-21.348,28.1885,11.7473,55.7875,24.6434,83.2302,38.0305-.0076,7.9956-.0115,12.0038-.0191,20.0407-9.9623-4.6811-19.9395-9.3167-29.9463-13.902-.0565,32.8441-.1119,65.6882-.1664,98.5323Z"/><path class="b" d="M439.8816,552.0133c-9.2264-3.238-13.8396-4.8623-23.066-8.0909,.0181-37.493,.0364-74.986,.0548-112.479,21.039,10.4659,42.0551,20.9742,63.1765,31.2733,.01,7.3339,.015,10.9875,.025,18.2681-13.4286-6.3089-26.8234-12.6855-40.2046-19.0944,.0015,9.3885,.003,18.777,.0045,28.1655,12.4631,5.5676,24.936,11.1135,37.4439,16.58,.0093,7.1992,.014,10.7864,.0234,17.936-12.5113-5.1558-24.9921-10.385-37.4643-15.6345,.0023,14.3586,.0046,28.7172,.0069,43.0759Z"/><path class="b" d="M601.9114,555.9165c.1515,11.7985-3.7655,24.3663-13.407,31.8097-11.5079,8.8843-26.3513,5.2911-38.9602,2.0971-14.9037-3.7753-29.2289-12.873-39.0566-25.054-9.6508-11.9617-14.117-28.6236-13.6823-43.0799,.3524-11.7167,1.7328-26.5167,13.538-32.7543,12.2539-6.4748,27.0433-.9714,38.98,3.6313,13.901,5.3602,28.5594,14.6008,38.9249,26.1547,9.1498,10.1988,13.4908,23.7839,13.6631,37.1954Zm-80.5663-24.0787c-.1666,8.4321,2.192,19.7689,7.0966,26.9583,4.7223,6.9221,12.2361,11.7676,21.0383,15.0531,16.4392,6.1359,28.2834-4.6558,27.8915-21.4182-.4368-18.6766-9.9915-35.2552-27.9843-42.3498-9.2727-3.6562-16.3082-3.8882-21.0191-.2361-4.712,3.6517-6.812,11.3117-7.0231,21.9927Z"/><path class="b" d="M625.0899,600.1029c-.2114-28.8917-.4093-57.7836-.5977-86.6754,9.3484,1.1416,14.0225,1.582,23.3707,2.1462,.1771,23.6248,.3594,47.2495,.5536,70.8741,14.9968-.0346,29.859-.5349,44.8218-1.5485,.0569,5.6704,.0853,8.4801,.1421,14.0485-22.8108,1.485-45.4468,1.8015-68.2905,1.1552Z"/><path class="b" d="M712.5895,597.1006c-.302-27.98-.5917-55.9602-.8716-83.9404,9.3483-1.3541,14.0225-2.2239,23.3707-4.4048,.3053,28.3492,.6196,56.6984,.9449,85.0474-9.3776,1.5602-14.0664,2.2134-23.4441,3.2979Z"/><path class="b" d="M863.5451,496.6667c.9487,16.5861-4.2412,34.4829-13.0938,48.9073-8.7325,14.2289-23.8121,25.1722-38.851,29.9803-12.3887,3.9608-26.7076,7.2192-39.1661,.2392-10.2594-5.7479-14.0895-18.2294-13.9969-29.5058,.1117-13.6168,4.3948-27.637,13.2256-38.2508,10.7511-12.9219,24.5925-22.1737,38.8721-30.5552,11.1631-6.5523,26.4142-15.5076,39.0338-12.0762,12.4462,3.3842,13.3534,20.372,13.9763,31.2612Zm-80.5665,41.8568c.1222,10.0745,2.5564,16.7891,7.3038,20.2758,4.7482,3.4872,11.8064,3.6649,21.1079,.0279,19.4221-7.5942,27.4034-27.2416,27.6149-46.6278,.2031-18.6273-11.9548-27.0371-28.2616-17.7155-7.0098,4.0071-16.3298,10.8306-20.9493,18.175-4.5576,7.2462-6.9379,15.7916-6.8157,25.8646Z"/></g><g><path class="b" d="M82.9543,268.2265c-.1551,11.5014-5.3932,22.1883-11.3668,31.7177-8.0446,12.8332-19.9271,23.282-31.6565,32.7183-4.0023,3.2245-6.0034,4.9031-10.0056,8.3986-.1512,13.8099-.3021,27.6198-.4527,41.4297-8.0552,6.3354-15.9072,13.1441-23.3474,20.1896,.4458-36.6457,.8945-73.2913,1.3461-109.937,11.3081-10.306,22.8411-19.9595,35.0611-29.1655,8.3061-6.2599,19.7192-13.253,30.2794-11.9022,6.7048,.8576,10.2747,6.7231,10.1422,16.5507Zm-52.8077,53.0039c3.0677-2.757,4.6016-4.0933,7.6693-6.6842,7.1678-6.0538,12.5465-11.3856,16.1367-16.5364,3.5892-5.1501,5.4125-10.0239,5.4706-14.8597,.0587-4.8794-1.3902-7.4965-4.34-7.7881-2.9504-.2917-7.6078,1.7552-13.967,6.6364-4.2367,3.252-6.355,4.9479-10.5917,8.4862-.1262,10.2485-.2521,20.4971-.3779,30.7457Z"/><path class="b" d="M203.2855,259.8825c.1133,16.1578-3.1948,33.3458-13.8291,47.4579-9.1644,12.1614-24.8691,18.764-38.9664,20.7514-13.1788,1.8579-27.5779,2.7047-38.7283-7.126-11.8839-10.4774-13.0371-28.8972-13.1465-43.004-.1089-14.0403,4.478-29.7541,13.9595-41.0086,9.74-11.5612,24.0301-19.7643,38.9841-22.0559,13.5542-2.0771,28.2139-.7284,38.5982,8.5362,10.5859,9.4445,13.0383,23.5771,13.1285,36.4489Zm-80.2333,8.8557c-.1709,10.005,.6506,21.8458,6.7513,30.0551,4.4217,5.95,11.6213,7.7958,20.8452,6.2916,22.1752-3.6163,27.8517-26.5706,28.1983-45.7285,.2863-15.8211-9.3997-32.3299-27.4457-28.4891-8.8212,1.8775-16.2767,5.9051-21.0387,12.393-4.763,6.4882-7.1332,15.1059-7.3104,25.4779Z"/><path class="b" d="M249.3116,281.2018c-.0755,15.4521-.15,30.9042-.2234,46.3564-9.3389-1.6143-14.0084-2.2772-23.3473-3.2515,.192-36.6562,.3998-73.3121,.6558-109.9679,10.7787,1.3149,21.2999,2.9264,31.9828,4.8733,12.0133,2.2457,24.6542,6.8849,33.0756,15.6077,7.0143,7.2653,10.7206,17.641,10.6447,27.934-.0463,6.2726-1.8251,11.2414-5.4036,14.8882-3.5794,3.6465-8.6341,5.7337-15.1641,6.5179,10.9707,20.5074,21.5952,41.1787,32.1754,61.8887-10.3632-4.3221-15.5448-7.0918-25.908-9.8748-8.6797-17.3148-17.3674-34.6256-26.0761-51.9259-4.9647-1.3116-7.4471-1.923-12.4118-3.0461Zm.1004-19.4615c3.0073,.7086,4.5109,1.0815,7.5182,1.8618,7.3679,1.9116,12.8123,2.3874,16.3315,1.0892,3.5179-1.2977,5.2904-4.4815,5.3139-9.5107,.0233-4.9807-1.752-9.0185-5.3218-12.038-3.5696-3.0193-9.1116-5.4529-16.6235-7.0852-2.8244-.6137-4.2366-.9066-7.0611-1.4625-.0629,10.6853-.0944,16.1144-.1573,27.1454Z"/><path class="b" d="M370.0425,371.9522c-9.3389-4.6197-14.0084-6.8837-23.3474-11.2567,.0731-30.4481,.1483-60.8961,.2269-91.3441-9.8956-4.6373-19.8076-9.1332-29.8223-13.5072,.0261-7.4497,.0391-11.1393,.0652-18.4478,28.153,12.2164,55.6075,25.7187,82.8854,39.7679-.0076,7.5997-.0114,11.4099-.019,19.0508-9.9135-5.2025-19.8467-10.3468-29.8223-15.4292-.0572,30.3887-.1124,60.7774-.1665,91.1662Z"/><path class="b" d="M439.8586,407.9769c-9.1883-4.8257-13.7825-7.249-22.9708-12.0561,.0181-36.646,.0365-73.2919,.0549-109.9379,20.9484,11.0194,41.8697,22.0859,62.9148,32.9199,.0099,7.8474,.015,11.7579,.025,19.552-13.384-7.0156-26.7204-14.1155-40.0381-21.256,.0015,9.4677,.003,18.9355,.0045,28.4033,12.404,6.7671,24.8252,13.498,37.289,20.1544,.0093,7.6808,.014,11.4544,.0233,18.9821-12.4702-6.645-24.8982-13.3635-37.3093-20.1179l.0068,43.3562Z"/><path class="b" d="M601.2181,427.6206c-.5427,13.0673-1.864,27.1447-13.3508,35.9407-11.9459,9.1475-26.5771,4.011-38.7991-.5444-15.4885-5.773-29.4439-17.8925-38.8953-31.813-9.463-13.9376-14.058-32.0035-13.6259-48.0211,.34-12.6002,1.4409-28.5833,13.4817-35.9971,11.987-7.3807,26.9417-1.9825,38.8184,2.7266,14.4138,5.7151,29.6144,16.3024,38.7638,29.7568,9.4117,13.8403,14.2865,31.5923,13.6072,47.9515Zm-80.2329-32.1104c-.0167,10.4811,2.08,21.3284,7.0675,30.5267,4.1223,7.6026,13.2782,15.0901,20.9514,18.4086,19.5718,8.4645,28.0369-7.4832,27.7756-25.0032-.3016-20.2303-7.9761-40.6558-27.8689-49.1558-9.244-3.9498-16.2405-3.973-20.9319,.2511-4.6924,4.2236-6.9741,12.6236-6.9938,24.9727Z"/><path class="b" d="M624.3017,483.3404c-.2272-36.6357-.4193-73.2714-.5973-109.9074,9.3096,1.4907,13.9644,2.0878,23.2739,2.9225,.166,31.1183,.3347,62.2365,.5532,93.3544,14.9902,1.2947,29.5995,1.7057,44.6366,1.1651,.0569,6.4398,.0853,9.634,.1421,15.9717-23.0247,1.0112-45.2119-.2889-68.0085-3.5063Z"/><path class="b" d="M711.44,484.8295c-.3542-36.6313-.6248-73.2625-.8713-109.8947,9.3096-1.3451,13.9644-2.2367,23.2739-4.5213,.2677,36.6324,.5614,73.2637,.9448,109.895-9.339,2.2841-14.0084,3.1757-23.3474,4.5209Z"/><path class="b" d="M861.7696,352.6468c.8376,17.9043-4.4973,37.8738-13.0376,54.2653-8.7961,16.8824-22.8455,32.494-38.6898,42.5891-10.647,6.7836-26.9498,13.3334-39.0049,7.7438-10.7701-4.9938-13.9205-19.2184-13.9408-30.2982-.0332-18.1066,3.8463-37.8275,13.1692-53.7775,9.0233-15.4376,23.6708-27.5889,38.7104-36.9307,11.1797-6.9442,25.8937-16.0918,38.8728-13.3466,12.5444,2.6532,13.4377,19.434,13.9207,29.7548Zm-80.2333,63.4627c.1451,10.6398,2.5469,17.4708,7.2748,20.3317,4.7286,2.8613,11.8885,1.788,21.021-4.2888,18.2313-12.1312,27.5474-34.0004,27.4991-55.416-.0442-19.6188-9.4729-31.6001-28.1465-18.9165-8.4829,5.7618-16.318,13.5114-20.8621,23.0342-5.201,10.8997-6.9501,23.2552-6.7864,35.2553Z"/></g><g><path class="b" d="M84.4144,146.0564c.0502,9.085-5.2491,20.4474-11.3207,26.9379-9.007,9.6285-20.1425,17.1602-31.5255,24.1837-3.9857,2.3291-5.9785,3.5375-9.9641,6.0457-.1512,12.1583-.3021,24.3167-.4527,36.475-7.9834,5.7011-15.7993,11.8386-23.2505,18.2178,.4485-36.3709,.8973-72.7418,1.3463-109.1127,11.3864-5.9564,23.0379-11.4059,34.9152-16.3111,9.4052-3.0771,20.2184-7.3833,30.1531-4.0082,6.7966,2.3089,10.0483,8.4084,10.0989,17.5719Zm-52.5891,39.4081c3.055-1.7802,4.5825-2.6458,7.6374-4.3294,7.1381-3.9341,12.4944-7.8576,16.0698-12.0304,3.5744-4.1715,5.3903-8.4965,5.4485-13.16,.0587-4.706-1.3834-7.553-4.3214-8.5548-2.9386-1.002-7.576-.1919-13.9088,2.7409-4.2191,1.9539-6.3286,2.9685-10.5477,5.0763-.1262,10.0858-.2521,20.1717-.3779,30.2575Z"/><path class="b" d="M204.2451,140.5238c-.1469,12.2152-4.5155,24.6955-13.7729,33.0749-10.3368,9.3564-25.5854,13.6041-38.8052,15.6003-12.6041,1.9032-26.8362,4.0849-38.5672-2.3544-10.2411-5.6215-13.3331-18.6369-13.0903-29.6078,.2935-13.2577,4.5167-27.1563,13.9031-36.8552,9.9579-10.2894,24.7383-16.6907,38.8225-17.8511,13.2638-1.0928,27.0575-1.2982,38.4372,7.1039,9.5621,7.0601,13.2106,19.4276,13.0728,30.8894Zm-79.9001,9.9214c-.1095,9.5977,2.13,16.3116,6.7223,20.1187,4.5923,3.8078,11.7397,4.3696,20.7584,3.1294,16.5798-2.28,27.8192-15.3933,28.0825-32.0318,.2507-15.8443-11.0715-27.705-27.3304-24.8116-8.8373,1.5727-16.2091,4.8904-20.9516,10.5883-4.7435,5.6982-7.1716,13.4101-7.2811,23.0071Z"/><path class="b" d="M250.0798,152.489c-.0757,11.6099-.1502,23.2198-.2235,34.8296-9.3002-1.2547-13.9503-1.7549-23.2505-2.4456,.2074-28.4395,.4247-56.8788,.6558-85.3181,10.6085,.0813,21.26,.4539,31.8497,1.0863,11.2465,.5132,24.4443,2.3443,32.9378,8.9557,7.0167,5.4618,10.642,14.0454,10.6,23.1306-.0245,5.3033-1.8177,9.4926-5.3814,12.4953-3.5646,3.0023-8.5983,5.1208-15.1013,6.5319,11.6976,16.7132,21.8329,34.3004,32.0412,51.9409-10.3203-4.1834-15.4804-7.2133-25.8006-9.4798-8.1938-13.7542-16.8967-27.2116-25.9671-40.4023-4.9441-.5899-7.4161-.8563-12.3602-1.3246Zm.1003-15.078c2.9948,.2365,4.4922,.3654,7.487,.6432,7.3372,.6806,12.7587,.3345,16.2637-1.2313,3.5041-1.5652,5.2686-4.4694,5.2921-8.6622,.0233-4.1527-1.7444-7.2674-5.2994-9.3276-3.5561-2.0595-9.0737-3.3975-16.5543-3.9076-2.8127-.1918-4.2191-.2802-7.0317-.4409-.0629,8.9977-.0944,13.5829-.1573,22.9263Z"/><path class="b" d="M370.3091,228.5597c-9.3002-4.4088-13.9504-6.5728-23.2506-10.7641,.0734-27.0371,.1489-54.0743,.2267-81.1115-9.8524-3.5172-19.7574-6.9214-29.6982-10.1802,.0261-6.3945,.0391-9.5564,.0652-15.8098,27.7137,8.5357,55.1657,17.7881,82.5405,27.3502-.0076,7.2913-.0114,10.9472-.019,18.2798-9.877-3.7946-19.7755-7.5406-29.6983-11.2136-.0566,27.8164-.112,55.6328-.1662,83.4491Z"/><path class="b" d="M439.8358,262.8313c-9.1502-4.585-13.7253-6.8867-22.8755-11.4553,.0181-35.7985,.0363-71.597,.0545-107.3956,20.8749,7.4098,41.7418,14.8403,62.653,22.1469,.01,8.2516,.015,12.3642,.025,20.5626-13.3069-5.068-26.5934-10.1868-39.8716-15.3297l.0046,28.5862c12.3615,5.3229,24.732,10.6253,37.1341,15.853,.0093,8.059,.014,12.0761,.0234,20.0854-12.4122-5.5306-24.7884-11.1416-37.1544-16.7747,.0024,14.5736,.0047,29.1473,.007,43.7209Z"/><path class="b" d="M600.5248,265.9026c-.3279,16.1999-2.1841,33.7097-13.2946,46.706-9.6969,11.3426-26.5861,8.0441-38.6378,3.065-15.7051-6.4883-29.936-18.2404-38.7343-32.7384-9.1672-15.1059-13.7105-33.6326-13.5699-51.2757,.1155-14.4863,2.2842-31.1354,13.4251-40.9301,10.9749-9.6488,25.9679-7.3946,38.6567-4.0293,14.3307,3.8008,29.6189,14.3608,38.6029,27.1026,10.2906,14.5949,13.9006,34.8596,13.5518,52.0999Zm-79.8998-24.0726c-.3774,11.1354,1.9734,23.3256,7.0386,33.5043,3.875,7.7871,13.037,15.6954,20.8646,18.8888,22.7563,9.2836,27.1493-15.7647,27.6597-31.8041,.6619-20.801-6.0708-45.3477-27.7539-52.764-9.0853-3.1075-16.3029-1.7846-20.8447,3.6212-6.4568,7.6849-6.6519,19.3367-6.9643,28.5539Z"/><path class="b" d="M623.5139,333.3993c-.2073-44.3906-.4059-88.7812-.5975-133.1718,9.2709,.3528,13.9062,.4541,23.1771,.4742,.1794,37.3311,.3636,74.6621,.5535,111.9932,14.9081,.4644,29.5649,.261,44.4513-.6757,.0569,9.3494,.0853,13.9985,.1421,23.2457-22.8215,1.3-45.016,.5609-67.7264-1.8655Z"/><path class="b" d="M710.2907,333.1421c-.2979-45.3051-.5879-90.6102-.8715-135.9153,9.2709-1.0855,13.9062-1.7393,23.1771-3.3013,.3085,44.937,.623,89.8739,.9448,134.8107-9.3002,2.1817-13.9503,3.0517-23.2505,4.4059Z"/><path class="b" d="M859.994,206.6669c.812,17.524-4.4701,36.8315-12.9814,52.737-8.772,16.3922-22.8252,31.9423-38.5286,41.3335-11.2994,6.7575-27.8727,10.7369-38.8438,1.3114-12.4829-10.7244-13.3206-30.8624-13.8846-45.8387-.6923-18.3792,3.0754-38.7645,13.1129-54.4963,8.8088-13.8061,23.0074-24.5828,38.5488-29.3812,12.4443-3.8422,26.7922-8.0479,38.7119-.7371,11.9832,7.3499,13.2832,22.5235,13.8647,35.0714Zm-79.9,41.8438c.0397,9.7125,.7279,22.0846,7.2456,29.6945,4.4446,5.1893,11.8806,5.6031,20.9343,.5592,19.8065-11.0346,27.5236-34.9517,27.3832-56.5698-.1116-17.1787-7.5978-35.7546-28.0311-27.6656-7.7899,3.0838-17.0458,10.8792-20.775,18.6931-5.1294,10.7478-6.8053,23.4537-6.757,35.2887Z"/></g><g><path class="b" d="M85.8747,30.4788c-.1191,9.1618-3.884,16.6686-11.2747,22.7706-8.8539,7.3102-20.2042,11.4198-31.3945,13.8116-3.969,.8815-5.9535,1.3372-9.9225,2.2797-.1512,11.9634-.3022,23.9267-.4528,35.8901-9.2615,3.2582-13.8922,5.0125-23.1537,8.7964,.4485-36.3178,.8973-72.6357,1.3463-108.9535,11.5897-.1803,23.1793-.3487,34.7693-.5053,10.1913-.239,21.2977,1.0452,30.0268,6.4424,6.7877,4.1969,10.1702,10.6562,10.0556,19.4679Zm-52.3705,21.3884c3.0422-.5455,4.5633-.8114,7.6055-1.33,7.1083-1.2118,12.4424-3.2764,16.003-6.1715,3.5596-2.8941,5.3682-6.5209,5.4263-11.0121,.0587-4.5321-1.3769-7.7349-4.3028-9.6977-2.9262-1.963-7.5443-2.7827-13.8506-2.3332-4.2015,.2995-6.3021,.4544-10.5036,.7752-.1262,9.9231-.2522,19.8462-.3779,29.7693Z"/><path class="b" d="M205.2047,37.888c-.4591,10.6324-4.8789,21.786-13.7167,28.4814-11.0362,8.361-25.2576,11.9805-38.6441,13.1616-12.8347,1.1324-26.937,1.9334-38.4061-5.4514-9.7328-6.2668-13.2129-18.5821-13.0341-29.6418,.1897-11.7336,4.2573-24.1465,13.8468-31.5607,11.231-8.6833,25.5731-10.327,38.6609-10.3762,12.7482-.0479,26.7467,1.7925,38.2762,8.9294,8.0558,4.9866,13.4088,17.3841,13.017,26.4577Zm-79.5668,4.244c-.1096,8.7523,2.1203,15.1971,6.6932,19.125,4.5729,3.9286,11.6999,5.0305,20.6716,4.43,15.0311-1.0061,27.7109-11.3479,27.9667-27.0516,.2526-15.5098-12.6766-24.2663-27.2152-23.466-8.9009,.49-16.1415,2.5088-20.8645,7.0208-4.7239,4.5121-7.1422,11.1901-7.2517,19.9418Z"/><path class="b" d="M250.8479,46.0647c-.077,9.6124-.1514,19.2248-.2235,28.8373-9.2614-.2442-13.8922-.3103-23.1536-.3061,.2056-23.7291,.4196-47.458,.6558-71.1868,10.5722-.0108,21.1445-.0134,31.7167-.0085,10.9104-.1034,23.0295,.3946,32.8,5.0137,6.9878,3.3036,10.5973,9.1327,10.5553,16.5192-.0245,4.3117-1.8103,8.0434-5.3592,11.0001-3.5499,2.9565-8.5626,5.2094-15.0385,6.9481,11.644,12.3615,21.905,25.6697,31.9068,39.377-10.2772-2.5275-15.4159-4.9411-25.6931-5.5972-8.3099-10.3968-16.9417-20.5348-25.858-30.4162-4.9235-.0922-7.3853-.1288-12.3087-.1806Zm.1003-12.3862c2.9823,.0171,4.4734,.0285,7.4557,.0567,7.3066,.069,12.7055-.6421,16.196-2.1804,3.4895-1.5377,5.2466-4.0149,5.2701-7.3712,.0233-3.3242-1.7369-5.6679-5.2771-7.069-3.5412-1.4006-9.0356-2.1099-16.485-2.1297-2.801-.0075-4.2015-.0101-7.0024-.0133-.063,7.3099-.0944,11.0513-.1574,18.707Z"/><path class="b" d="M370.5753,96.9335c-9.2615-2.5591-13.8922-3.8209-23.1537-6.2842,.0731-23.9777,.148-47.9555,.2267-71.9332-9.8568-.6314-19.715-1.2443-29.5742-1.8354,.0261-5.3392,.0391-7.9735,.0652-13.1716,27.3987,.308,54.7972,.6385,82.1956,.9787-.0076,6.9828-.0115,10.4845-.0191,17.5085-9.8575-.6692-19.7155-1.3304-29.5743-1.9802-.0568,25.5724-.1121,51.1449-.1663,76.7173Z"/><path class="b" d="M439.8124,116.643c-9.1121-2.6268-13.6682-3.9442-22.7803-6.5638,.0181-35.0606,.0363-70.1212,.0547-105.1817,20.7971,.2616,41.5941,.5239,62.3913,.7822,.0099,8.6558,.0149,12.9705,.0249,21.5731-13.2357-.8792-26.4705-1.7711-39.7051-2.6665,.0015,9.5897,.003,19.1793,.0045,28.769,12.3247,1.7726,24.6503,3.5389,36.9792,5.2826,.0093,8.4371,.014,12.6432,.0233,21.0307-12.3375-2.3191-24.6693-4.6687-36.9995-7.0268l.007,44.0013Z"/><path class="b" d="M599.8312,82.0764c.0581,17.8839-2.7411,39.6365-13.2383,54.8929-8.5945,12.491-24.5607,14.5664-38.4768,11.2822-15.5497-3.6698-29.745-13.9949-38.5731-27.1244-9.9213-14.7554-14.0374-33.9311-13.5136-51.4568,.4904-16.4079,2.2902-34.7098,13.369-48.1439,9.3135-11.2934,23.9345-17.7571,38.4953-17.3263,15.0564,.4455,30.1975,7.6162,38.4418,20.5,10.5656,16.5114,13.4346,38.556,13.4957,57.3762Zm-79.5665-8.5002c.0366,11.6765,1.3822,24.3352,7.0095,34.7878,4.5406,8.4341,11.7582,13.7199,20.7778,15.8398,24.9684,5.8684,27.1232-26.3891,27.5438-42.76,.4912-19.1173-3.5327-50.0425-27.6384-51.7082-9.0621-.6262-16.2559,3.1528-20.7576,10.5182-5.9116,9.672-6.9698,22.2017-6.935,33.3225Z"/><path class="b" d="M622.7258,155.3102c-.2065-49.4938-.4052-98.9876-.5973-148.4814,9.2322-.0014,13.8481-.0043,23.0803-.0151,.1797,41.1323,.3639,82.2645,.5532,123.3967,14.7773-.2266,29.5074-.716,44.2661-1.4939,.0569,10.1187,.0853,15.1524,.1421,25.1689-22.5032,1.3167-44.9087,1.7391-67.4445,1.4247Z"/><path class="b" d="M709.1413,152.3184c-.2974-48.5604-.5875-97.1209-.8713-145.6814,9.2321-.0422,13.8481-.0664,23.0802-.1221,.3087,47.6972,.6234,95.3943,.9448,143.0914-9.2615,1.2696-13.8922,1.807-23.1537,2.7121Z"/><path class="b" d="M858.2184,60.4764c.1439,16.0416-4.1207,33.2145-12.9252,47.0212-8.7064,13.6529-23.343,23.3911-38.3676,28.2814-13.3787,4.3546-29.2487,2.2502-38.6826-8.5007-11.4673-13.0681-14.1498-33.8597-13.8284-50.8126,.3521-18.5686,1.9507-38.549,13.0564-54.0738,8.6454-12.0854,23.4871-18.8514,38.3872-18.562,13.6952,.266,29.0797,4.293,38.551,15.1303,9.8217,11.238,13.6799,27.1169,13.8091,41.5161Zm-79.5669,13.4816c.072,10.8212,.9886,23.5353,7.2167,32.6727,4.4879,6.5844,11.6588,8.7704,20.8474,6.5539,21.4878-5.1834,27.3871-28.599,27.2673-47.7967-.1075-17.2368-6.1316-40.285-27.916-38.7467-9.075,.6408-16.2266,4.6699-20.6877,12.5893-5.7805,10.2614-6.8046,23.1589-6.7277,34.7274Z"/></g></svg>