<?xml version="1.0" encoding="UTF-8"?><svg id="a" xmlns="http://www.w3.org/2000/svg" width="867.3264" height="761.8516" viewBox="0 0 867.3264 761.8516"><defs><style>.b{fill:#f21050;stroke:#f21050;stroke-miterlimit:10;stroke-width:8px;}</style></defs><g><path class="b" d="M35.7741,602.2522c10.0912-3.6004,23.4039-6.1414,32.8096,.1389,8.6622,5.7839,9.7637,17.2802,10.1449,26.1859,.2278,5.3236-.9011,11.0947-2.563,16.3779-1.663,5.2856-4.3156,10.0859-7.9606,14.3708-3.6461,4.2873-8.4152,7.8636-14.304,10.7714-5.8906,2.9088-13.0886,4.8894-21.5895,6.1458-5.6749,.8387-8.5125,1.2773-14.1874,2.1954-.1697,15.2466-.3392,30.4931-.5085,45.7396-5.4265,.1016-8.1398,.1544-13.5663,.2644,.4446-37.0331,.8897-74.0662,1.3351-111.0992,10.063-3.91,20.1199-7.7469,30.3896-11.0909Zm-1.3963,12.3732c-6.239,1.8906-9.3585,2.8857-15.5974,4.9821-.176,15.7459-.3517,31.4918-.5271,47.2377,5.0676-.9982,7.6014-1.4775,12.669-2.398,7.4366-1.3508,13.6462-3.2145,18.6298-5.7597,4.9825-2.545,8.7391-5.9862,11.2717-10.3711,2.5315-4.3847,3.8263-9.9174,3.885-16.5177,.0765-8.6049-2.3348-14.5022-7.231-17.4374-4.8951-2.9346-12.5956-2.9189-23.1,.2641Z"/><path class="b" d="M203.9127,647.0854c.0055,10.1349-1.0939,21.4214-3.5789,31.3325-2.3648,9.4316-5.761,17.7008-10.2889,24.5851-4.529,6.887-10.1274,12.2159-16.7969,15.9609-6.6705,3.745-14.3949,5.6085-23.1735,5.6477-9.0455,.0405-16.9212-1.7424-23.627-5.226-6.7068-3.4836-12.2574-8.4-16.6511-14.6924-4.3948-6.2924-7.63-13.7903-9.8015-22.3674-2.2911-9.0496-3.2227-19.4669-3.088-28.7234,.1835-12.6038,1.8959-25.5456,6.173-37.567,3.7111-10.4302,9.9808-20.0507,18.0479-27.457,8.5212-7.8231,19.2145-10.8353,30.0929-12.803,8.9371-1.6166,21.5934,1.3293,29.0253,6.6986,7.6104,5.4983,14.8055,16.1152,17.771,24.9749,4.1861,12.5061,5.8884,26.3932,5.8956,39.6365Zm-92.7448,5.222c-.0715,9.9304,.78,20.6763,4.0047,30.5951,2.7808,8.5533,7.0289,15.2568,12.8199,19.9543,5.791,4.6974,13.1819,7.0353,22.1707,6.8869,9.0416-.1492,16.4618-2.752,22.2599-7.8851,5.7971-5.1331,10.0767-12.4268,12.9138-21.6801,3.2642-10.6462,3.9345-21.7639,4.3135-32.7363,.5044-14.6023-1.7324-30.9207-9.2029-43.7242-6.0008-10.2846-17.7846-14.7153-29.3171-13.448-8.8937,.9774-16.4608,4.1284-22.3286,9.5164-5.869,5.3881-10.225,12.6111-13.1533,21.4313-3.3439,10.0718-4.4078,20.9733-4.4807,31.0897Z"/><path class="b" d="M261.5485,575.1443c9.5465,.3861,17.4312,2.2604,23.6532,5.465,6.2222,3.2047,10.8641,8.8025,13.9241,15.2142,3.059,6.4115,4.5776,14.0364,4.5515,23.0328-.0215,7.4016-1.1542,13.4256-3.3993,18.1072-2.2451,4.6841-5.1786,8.3832-8.8002,11.0852-3.6226,2.7018-7.4813,5.2558-11.5776,6.9127,10.6975,22.5183,21.0551,45.1931,31.785,67.6965-6.3203-.0881-9.4804-.1314-15.8007-.216-9.371-21.0222-18.8251-42.0052-28.353-62.9567-9.6913-.1378-14.537-.183-24.2283-.2142-.0836,21.0131-.166,42.0263-.2474,63.0394-5.4265,.0009-8.1398,.0022-13.5663,.0069,.2049-49.3085,.4161-98.6171,.6351-147.9256,10.4703,.0511,20.963,.3088,31.4239,.7525Zm-.8498,14.2104c-6.8438-.2298-10.2657-.3193-17.1095-.4386-.0768,18.5888-.1526,37.1777-.2275,55.7665,7.3937,.0386,11.0906,.0786,18.4844,.1936,9.5076,.1478,16.5135-2.1261,21.0176-6.8297,4.5031-4.7036,6.7684-11.6863,6.7975-20.9302,.0305-9.7005-2.3237-16.6082-7.0584-20.8364-4.7357-4.2283-12.0362-6.5939-21.904-6.9252Z"/><path class="b" d="M366.1899,723.4599c-5.4584-.0838-8.1876-.1254-13.6461-.2076,.074-39.2795,.1497-78.559,.2272-117.8384-12.1773-2.9928-24.3777-5.8921-36.6066-8.6671,.0151-5.5543,.0226-8.3197,.0377-13.8268,29.0143,7.2613,57.8496,15.1315,86.6344,23.2509-.004,4.7761-.006,7.1672-.0099,11.9557-12.1367-3.1595-24.2836-6.2805-36.4474-9.3337-.0643,38.2223-.1274,76.4446-.1892,114.667Z"/><path class="b" d="M433.9418,724.528c-5.4266-.0867-8.1398-.1301-13.5663-.2166,.0141-37.7123,.0283-75.4246,.0425-113.137,21.5756,6.1685,43.1492,12.3419,64.7571,18.3969,.0066,4.0303,.0098,6.0403,.0164,10.0502-17.0964-4.3989-34.1749-8.8638-51.2493-13.3472,0,13.3799,0,26.7597-.0001,40.1395,16.0634,2.7476,32.1271,5.4944,48.2006,8.1825,.0061,3.9432,.0092,5.9102,.0153,9.8344-16.0766-2.2534-32.1464-4.5557-48.2159-6.8585l-.0002,46.9559Z"/><path class="b" d="M605.6475,692.2972c.041,5.5345-1.064,10.445-3.3162,14.8021-2.2533,4.3583-5.6144,8.0279-10.0851,11.0687-4.4728,3.042-10.0281,5.3945-16.6663,6.9282-6.6392,1.5337-14.3486,2.3436-23.1272,2.2537-9.045-.0928-16.9366-1.088-23.6727-3.2134-6.7381-2.1255-12.3325-5.2355-16.7827-9.3986-4.4523-4.1631-7.7879-9.2422-10.0068-15.1733-2.2189-5.9311-3.3351-12.5284-3.3505-19.6412-.0205-9.4282,1.9263-17.4583,5.8372-23.7231,3.9099-6.265,9.853-10.3286,17.8237-12.158,10.0176-2.2992,20.7599-.3416,30.012,1.9504,9.8175,2.4321,19.9027,6.7104,29.1042,11.4862,7.5739,3.931,13.8965,8.7088,17.9955,14.6456,4.099,5.9367,6.1791,12.6731,6.2349,20.1726Zm-92.7448-10.0322c.0208,7.5189,1.4462,14.1545,4.2798,19.7462,2.8325,5.5915,7.1657,9.907,12.9999,12.9566,5.832,3.0495,13.2441,4.6133,22.2334,4.9543,9.041,.343,16.4407-.6119,22.1962-2.6693,5.7555-2.0573,9.9996-5.3339,12.7349-9.6264,2.7341-4.2925,4.0798-9.449,4.0382-15.5977-.0631-9.3549-3.2651-17.2039-9.5815-22.9587-8.1641-7.4384-18.6355-12.0107-29.4528-14.4332-8.9818-2.0114-16.4404-2.4362-22.2662-.8705-5.8268,1.5654-10.1526,4.8101-12.9754,9.7021-2.8239,4.8938-4.2274,11.2375-4.2064,18.7965Z"/><path class="b" d="M631.8507,726.7458c-.2222-23.6928-.4224-47.3857-.6144-71.0787,5.4097,.0768,8.1145,.0949,13.5242,.0861,.186,21.3645,.381,42.7289,.5883,64.0933,17.2593-.0783,34.5166-.2214,51.7748-.4378,.0339,2.8881,.0509,4.3234,.085,7.1765-21.786,.0909-43.5718,.1423-65.3578,.1608Z"/><path class="b" d="M717.159,726.4788c-.3055-24.762-.5977-49.524-.8794-74.2863,5.4097-.5562,8.1145-.8635,13.5242-1.5411,.2965,25.246,.6028,50.492,.9215,75.7378-5.4265,.0388-8.1398,.0566-13.5663,.0896Z"/><path class="b" d="M863.3246,670.5784c-.0664,8.1392-.9459,16.1087-3.1475,23.1362-2.2026,7.0295-5.5201,13.0703-9.9546,18.0201-4.4364,4.9517-9.9636,8.6566-16.582,11.1985-6.6194,2.5419-14.319,3.7369-23.0975,3.829-9.0449,.0949-16.9464-.9125-23.7023-2.8424-6.7578-1.9298-12.3804-4.6387-16.8671-8.1189-4.4879-3.4811-7.8682-7.611-10.1378-12.4686s-3.4421-10.2831-3.5194-16.4007c-.1024-8.1091,1.7726-15.4973,5.6217-22.3719,3.8481-6.8744,9.7902-12.86,17.6794-18.1989,9.1451-6.1887,19.8615-10.2214,29.9604-13.0441,8.9607-2.5045,19.3595-4.8276,29.1552-2.8095,7.9246,1.6326,13.9672,5.8182,18.1388,12.652,4.61,7.552,6.5221,18.8952,6.4526,27.4191Zm-92.7445,14.9874c.0887,6.9435,1.573,12.7585,4.4563,17.6262,2.8822,4.8678,7.2538,8.5637,13.115,11.1345,5.8591,2.5709,13.2847,3.795,22.2739,3.4429,9.0411-.3542,16.4272-2.2068,22.1556-5.8209s9.9342-8.7352,12.6196-15.3237c2.6844-6.5884,4.3287-14.7665,3.8618-23.0807-.5321-9.4756-1.5811-21.4854-9.8242-28.3401-7.9928-6.6465-20.2264-4.9866-29.5402-2.4444-8.8583,2.4179-16.4271,5.5164-22.2262,9.6003-5.8002,4.0841-10.0881,8.8625-12.8616,14.4366-2.7756,5.576-4.1195,11.7886-4.0302,18.7693Z"/></g><g><path class="b" d="M37.4104,444.3538c9.4711-5.5897,21.569-14.0411,32.6744-9.8334,6.6804,2.5311,10.2061,10.6567,10.1022,22.636-.0469,5.4079-.8978,10.8828-2.553,16.3964-1.6563,5.5162-4.2982,10.8395-7.9284,16.0138-3.6312,5.1769-8.3808,10.0519-14.2456,14.7969-5.8668,4.7466-13.035,9.1693-21.5011,13.6941-5.6517,3.0206-8.4775,4.6075-14.1292,7.9434-.1697,15.1005-.3392,30.2009-.5086,45.3013-5.4043,2.5443-8.1064,3.8726-13.5107,6.6478,.4447-36.9445,.8898-73.8889,1.3353-110.8334,9.6914-8.0968,19.7822-15.7188,30.2648-22.7628Zm-1.3911,12.5999c-6.2134,4.0687-9.32,6.2219-15.5333,10.782-.176,15.5945-.3517,31.1889-.5272,46.7834,5.0468-3.1263,7.5703-4.6212,12.6171-7.4811,7.4061-4.197,13.5902-8.1874,18.5534-12.3242,4.9622-4.1362,8.7035-8.626,11.2258-13.6296,2.5212-5.0031,3.811-10.713,3.8696-17.1085,.0765-8.338-2.3251-13.3859-7.2005-14.7873-4.8748-1.4012-12.5437,.9149-23.0049,7.7653Z"/><path class="b" d="M204.8567,460.662c.0051,9.2479-1.1154,19.6708-3.5648,28.6696-2.3559,8.6553-5.7377,16.3138-10.2473,22.8187-4.5106,6.5074-10.0862,11.7078-16.7284,15.6667-6.6432,3.959-14.3361,6.3986-23.0787,7.4884-9.0084,1.1229-16.8518,.6441-23.53-1.5182-6.6793-2.1621-12.2069-5.7528-16.5825-10.8498-4.3766-5.0968-7.6301-11.4816-9.7607-19.2485-2.1306-7.767-3.1422-16.6606-3.0743-26.7359,.0845-12.5483,2.0013-25.1525,6.1489-37.0217,3.772-10.7945,9.7755-20.8574,17.9745-28.8755,8.1572-7.9772,19.0802-12.8909,29.9694-14.9215,8.7272-1.6274,21.3599,.2402,28.9058,5.2177,7.4135,4.8901,14.6627,14.6739,17.6974,23.0008,4.1509,11.3896,5.8638,24.1514,5.8706,36.3094Zm-92.3643,12.2781c-.0914,8.8372,.8826,19.7296,3.9873,28.2983,2.7611,7.6205,6.9997,13.1848,12.7668,16.6969,5.7672,3.5121,13.1277,4.6153,22.0797,3.4474,9.0046-1.1747,16.3944-4.2159,22.1689-9.3712,5.7734-5.1552,10.033-12.0982,12.8613-20.7211,3.053-9.3085,4.5799-20.5913,4.2964-30.2539-.4069-13.8711-1.3334-27.994-9.1641-40.109-6.3065-9.7569-18.1439-13.1698-29.1963-11.2648-8.848,1.525-16.3931,5.2299-22.2371,11.0029-5.845,5.7732-10.1785,13.2568-13.0998,22.0513-3.0839,9.2842-4.3644,20.6692-4.4632,30.2233Z"/><path class="b" d="M262.2571,399.9786c9.5073,1.5807,17.3594,4.4347,23.556,8.2163,6.1968,3.7817,10.8194,9.4959,13.8668,15.6995,3.0464,6.2032,4.5587,13.2449,4.5326,21.1903-.0215,6.537-1.1505,11.6285-3.3856,15.2759-2.2361,3.6489-5.1575,6.2654-8.7643,7.8535-3.6078,1.5878-7.4507,3.4879-11.5302,4.4778,11.1274,21.9946,21.3065,44.3922,31.6541,66.7629-6.2944-1.8687-9.4417-2.7814-15.736-4.5536-8.9058-20.082-18.6284-39.7709-28.2361-59.5238-9.6516-1.0687-14.4774-1.5128-24.129-2.1742-.0836,18.8967-.1661,37.7933-.2474,56.6901-5.4043-.21-8.1064-.2896-13.5107-.3916,.2042-44.5189,.4153-89.0377,.6351-133.5565,10.4445,.896,20.962,2.2685,31.2947,4.0334Zm-.8466,12.4733c-6.8157-1.0359-10.2235-1.4931-17.0392-2.2653-.0773,16.6424-.1529,33.2848-.2275,49.9271,7.3635,.5652,11.0451,.9168,18.4086,1.7363,9.4686,1.0538,16.4457-.121,20.9315-3.6846,4.4847-3.5637,6.7408-9.342,6.7698-17.4138,.0305-8.4705-2.314-14.8569-7.0292-19.2539-4.7162-4.3972-11.9867-7.5522-21.814-9.0459Z"/><path class="b" d="M366.4679,556.717c-5.4361-1.8236-8.1541-2.7266-13.5902-4.509,.0738-36.23,.1494-72.46,.2271-108.6899-12.0565-5.3965-24.2015-10.5973-36.4563-15.5277,.0151-4.9474,.0226-7.4094,.0377-12.3096,29.2369,12.1843,57.8417,25.6407,86.2786,39.5762-.004,4.6154-.006,6.9263-.01,11.5542-12.0515-5.8153-24.1417-11.5511-36.2978-17.1449-.0644,35.6835-.1274,71.3671-.1891,107.0507Z"/><path class="b" d="M433.9423,580.1216c-5.4044-1.9055-8.1065-2.8588-13.5108-4.7606,.0141-37.1431,.0283-74.2863,.0425-111.4295,21.4634,10.696,42.9142,21.4113,64.491,31.8774,.0065,4.2938,.0098,6.4355,.0163,10.7089-17.064-8.1096-34.0592-16.3558-51.0387-24.641l-.0002,40.1359c15.9791,7.0595,31.9687,14.0912,48.0029,21.0247,.0061,4.1891,.0092,6.2789,.0153,10.449-16.0367-6.7006-32.0323-13.4952-48.0181-20.3165,0,15.6506-.0001,31.3011-.0001,46.9516Z"/><path class="b" d="M604.9433,586.7466c.0411,6.7991-1.0592,12.7555-3.302,17.9659-2.2439,5.2118-5.5911,9.5134-10.0433,12.9434-4.4545,3.4314-9.9868,6.4838-16.5978,6.7203-6.6119,.2361-14.2898-.8804-23.0323-3.488-9.0079-2.6866-16.8672-6.2206-23.5757-10.6581-6.7105-4.4381-12.282-9.6182-16.7141-15.5467-4.4341-5.9293-7.7561-12.4645-9.9659-19.5577-2.2098-7.0933-3.3215-14.547-3.337-22.2838-.0205-10.2553,1.9182-18.5109,5.813-24.5872,3.8937-6.0767,9.8345-9.5108,17.7502-10.2823,10.3338-1.0072,20.9736,2.7045,29.8885,6.3436,10.0322,4.0952,20.1213,10.0901,28.9847,16.9141,7.5562,5.8176,13.8395,12.4637,17.9219,20.1761,4.0825,7.7126,6.1541,16.1273,6.2098,25.3405Zm-92.3641-27.9247c.0208,8.3572,1.4405,16.079,4.2625,23.0927,2.821,7.0132,7.1365,13.0866,12.9468,18.2025,5.8083,5.1152,13.19,9.047,22.1424,11.8536,9.004,2.8228,16.3733,3.5358,22.1051,2.3123s9.9584-5.1918,12.6823-10.2897c2.7228-5.098,3.8882-11.5554,4.0212-18.9928,.1688-9.4407-3.4109-21.9866-9.5428-29.4814-7.7362-9.4556-17.9685-16.5321-29.3319-21.0358-8.954-3.5488-16.3728-5.1112-22.1746-4.2797-5.8029,.831-10.1107,3.689-12.9219,8.5934-2.8121,4.906-4.2098,11.623-4.189,20.0249Z"/><path class="b" d="M631.0403,630.6378c-.2169-28.6222-.4205-57.2445-.6144-85.8669,5.3875,.5754,8.0812,.8174,13.4686,1.1995,.1874,25.528,.3826,51.0558,.5883,76.5836,17.2555,.0474,34.3571-.5244,51.5626-1.7997,.0339,3.3331,.0509,4.9908,.085,8.2888-21.7318,1.5549-43.3125,2.0266-65.0901,1.5948Z"/><path class="b" d="M715.9992,626.9913c-.3043-27.9124-.5967-55.825-.8794-83.7376,5.3875-.8528,8.0812-1.345,13.4686-2.4716,.2974,28.1136,.6038,56.2271,.9215,84.3404-5.4043,.8273-8.1064,1.1998-13.5107,1.8688Z"/><path class="b" d="M861.5635,528.1783c.1029,8.33-.9413,16.6813-3.1334,24.7969-2.1932,8.118-5.4969,15.7632-9.9128,22.7504-4.4181,6.99-9.9224,13.1514-16.5135,18.4053-6.5923,5.2543-14.2603,9.4069-23.0029,12.4661-9.0078,3.152-16.8771,4.441-23.6052,4.2302-6.7302-.2103-12.3302-1.7656-16.7985-4.5208-4.4695-2.7559-7.8363-6.5738-10.0969-11.4354-2.2607-4.8615-3.4287-10.5898-3.506-17.2446-.1023-8.821,1.8519-17.1848,5.5977-25.1998,3.834-8.2039,10.87-16.699,17.6061-22.5872,8.9933-7.8614,19.3442-14.8196,29.837-20.4698,8.9836-4.8376,18.7103-10.3221,29.0358-11.8701,7.8319-1.1742,13.9222,.6389,18.0652,5.8336,4.1438,5.1957,6.2882,13.5579,6.4276,24.8453Zm-92.3641,45.401c.0887,7.459,1.5673,13.4349,4.4391,18.0163,2.8706,4.5816,7.225,7.5073,13.0619,8.6708,5.8348,1.1631,13.2305,.3096,22.1829-3.0253,9.004-3.3541,16.3599-8.0419,22.0646-13.9827,5.7048-5.9407,9.8931-12.9263,12.5673-20.76,2.6731-7.8331,4.3245-16.6987,3.8447-25.0966-.4596-8.0448-1.2184-20.9365-9.7853-25.0615-8.8557-4.2641-21.3699,2.3409-29.4196,6.8409-8.796,4.9172-16.3595,9.8934-22.1346,15.4627-5.7762,5.5698-10.0464,11.485-12.8082,17.9899-2.7639,6.5071-4.1019,13.4467-4.0127,20.9455Z"/></g><g><path class="b" d="M39.0465,297.1178c9.5826-6.4175,20.7299-15.1456,32.5393-14.0274,6.5898,.6239,10.1635,5.9588,10.0596,14.8602-.0469,4.0186-.8945,8.2682-2.543,12.8074-1.6497,4.5415-4.2808,8.8828-7.8962,14.6479-3.6164,5.7679-8.3455,11.5497-14.1873,17.6471-6.6322,6.9231-14.0203,13.3757-21.4127,19.4612-5.6284,4.7336-8.4426,7.2344-14.071,12.5192-.1697,14.9543-.3392,29.9086-.5085,44.863-5.3821,4.5391-8.0731,6.9191-13.4552,11.9117,.4402-36.4893,.8851-72.9784,1.3351-109.4675,9.5877-8.9363,19.6317-17.3877,30.14-25.2229Zm-1.3859,10.9799c-6.1877,4.7847-9.2816,7.3232-15.4693,12.7118-.1761,14.2845-.3524,28.569-.527,42.8535,5.026-4.8355,7.5391-7.1367,12.5651-11.5173,7.3756-6.4284,13.5342-12.074,18.4771-17.091,4.9418-5.0164,8.6678-9.7049,11.1799-14.3361,2.511-4.6305,3.7956-9.3479,3.8542-14.2748,.0765-6.4228-2.3143-9.7375-7.1702-9.7578-4.8559-.0195-12.4918,3.3559-22.9099,11.4117Z"/><path class="b" d="M205.8006,291.0597c-.0624,9.4113-1.2389,17.9648-3.5508,25.7147-2.3129,7.752-5.7145,14.4581-10.2056,20.2127-4.4921,5.7568-10.0449,10.3689-16.6599,13.9931-6.616,3.6243-14.2772,6.0034-22.9838,7.4194-8.9714,1.4592-16.7825,1.6336-23.4332,.2373-6.6517-1.396-12.1564-4.1218-16.5138-8.39-4.3583-4.2677-7.5983-9.8671-9.7198-16.9526-2.1214-7.0854-3.0396-15.448-3.0608-24.969-.0198-8.8391,2.4978-19.5872,6.1246-27.52,3.6878-8.0662,10.9204-17.1258,17.9011-22.5621,8.7347-6.8022,19.2339-10.1825,29.8461-12.5666,8.5808-1.9277,20.5889-1.0126,28.7864,2.7686,7.679,3.542,13.6535,9.0612,17.6238,16.3939,3.9703,7.3335,5.9124,16.1308,5.8455,26.2206Zm-91.9838,11.6718c-.0997,10.6372,1.2365,19.3959,3.97,26.3395,2.7325,6.944,6.9705,11.702,12.7137,14.5096,5.7432,2.8075,13.0735,3.2872,21.9886,1.8418,8.9675-1.454,16.327-4.3224,22.0779-9.0234,5.7498-4.7009,10.0193-10.8799,12.8088-18.7052,2.7885-7.8253,4.6658-17.4166,4.2795-27.4196-.3714-9.6183-1.562-20.6147-9.1254-28.3036-7.4943-7.6186-19.0831-8.7968-29.0755-7.0732-8.8339,1.5239-16.3256,4.6433-22.1456,9.1856-5.821,4.5434-10.1699,10.223-13.0464,16.7997-2.8775,6.578-4.3712,13.9008-4.4456,21.8487Z"/><path class="b" d="M262.9658,251.3678c9.468,1.9909,17.2861,4.9667,23.4587,8.7206,6.1715,3.7546,10.7755,8.9133,13.8094,14.4429,3.0339,5.5296,4.5397,11.7039,4.5136,18.5395-.0215,5.6239-1.1451,9.9149-3.3718,12.8601-2.2268,2.9472-5.1365,4.9377-8.7285,6.009-3.593,1.0709-7.42,1.5917-11.4828,1.5768,10.7946,20.841,21.2725,41.8097,31.5231,62.924-6.2686-2.6062-9.4028-3.8668-15.6714-6.2837-9.0883-19.0776-18.6525-37.9218-28.119-56.8138-9.6119-2.8003-14.4178-4.0435-24.0297-6.1359-.0842,16.7802-.1662,33.5604-.2474,50.3405-5.382-.8685-8.0731-1.2529-13.4551-1.9095,.1869-36.4989,.3889-72.9975,.6351-109.496,10.4166,1.2352,20.9125,3.0156,31.1657,5.2254Zm-.8433,9.7669c-6.7875-1.5115-10.1813-2.1924-16.9689-3.3794-.0776,12.6971-.1534,25.3942-.2276,38.0912,7.3331,1.6709,10.9996,2.6224,18.3328,4.7215,9.4296,2.6992,16.3781,3.2884,20.8453,1.212,4.4663-2.0767,6.7132-6.6161,6.7423-13.5155,.0305-7.2397-2.3043-13.045-6.9999-17.3079-4.6967-4.2622-11.9372-7.6426-21.7239-9.822Z"/><path class="b" d="M366.7459,401.1682c-5.4138-2.6626-8.1206-3.9767-13.5344-6.5583,.0731-32.9023,.1485-65.8047,.2272-98.707-11.9785-5.7897-24.0714-11.3459-36.306-16.5742,.0151-4.2795,.0226-6.4074,.0377-10.6397,29.2023,12.6664,57.658,26.7572,85.9228,41.3795-.004,4.4085-.006,6.6159-.01,11.0369-11.9874-6.3121-24.025-12.53-36.1481-18.578-.0652,32.8803-.1281,65.7606-.1892,98.6408Z"/><path class="b" d="M433.9428,435.7286c-5.3821-2.8287-8.0731-4.2443-13.4552-7.0657,.0141-36.489,.0283-72.9779,.0425-109.4669,21.3691,11.2568,42.7229,22.5348,64.225,33.5363,.0065,4.6269,.0098,6.9352,.0164,11.5416-17.0093-8.8029-33.9287-17.7682-50.8282-26.7798,0,13.377-.0001,26.754-.0001,40.131,15.8939,8.6959,31.8068,17.3488,47.8051,25.8511,.0061,4.501,.0092,6.6959,.0153,11.1119-16.0025-8.4891-31.9208-17.1266-47.8204-25.8068-.0001,15.6491-.0002,31.2982-.0002,46.9473Z"/><path class="b" d="M604.2393,459.5475c.2632,7.8293-1.0546,14.9749-3.2881,20.8499-2.2345,5.8765-5.5677,10.5303-10.0017,13.9787-4.4359,3.4497-9.9456,5.8812-16.5292,5.9177-6.5847,.0362-14.231-1.7341-22.9376-5.4105-8.9707-3.788-16.7977-8.5592-23.4786-14.1981-6.6829-5.6399-12.2316-11.9681-16.6454-18.9293-4.4158-6.9622-7.7242-14.4047-9.925-22.2958-2.2008-7.8912-3.308-16.0234-3.3234-24.3834-.0204-11.2825,1.9102-20.2671,5.7889-26.973,3.8776-6.7059,9.788-10.6169,17.6769-11.7568,10.2982-1.488,20.6386,2.4046,29.7651,5.9519,10.4958,4.0796,20.363,10.9838,28.8652,18.5272,7.271,6.451,14.2682,16.6884,17.8483,25.6454,4.1989,10.5054,5.8125,22.005,6.1847,33.076Zm-91.9835-37.2071c.0208,9.1954,1.4346,17.7717,4.2451,25.7419,2.8094,7.9698,7.1072,15.0876,12.8936,21.3083,5.7844,6.2197,13.1357,11.2968,22.0513,15.0853,8.9669,3.8103,16.3058,4.9685,22.014,3.6262,5.7081-1.3423,9.9172-5.2333,12.6298-10.9082,2.7115-5.6752,4.0137-12.9958,4.0044-22.0472-.0132-12.8824-2.7095-26.1684-9.5039-37.1705-6.7412-10.9158-17.4312-18.894-29.2112-23.8356-8.9178-3.741-16.3053-5.2337-22.0831-4.1301-5.7789,1.1041-10.0688,4.3931-12.8685,9.9092-2.8002,5.517-4.1924,12.9972-4.1714,22.4207Z"/><path class="b" d="M630.23,515.0248c-.2354-36.4784-.4324-72.9568-.6141-109.4355,5.3652,.7644,8.0479,1.0948,13.4131,1.6398,.1747,33.2157,.358,66.4312,.5879,99.6466,17.2484,1.6095,34.0612,2.0281,51.3506,1.1118,.0339,3.7781,.0509,5.6583,.085,9.4012-21.9021,1.2328-43.0734,.33-64.8224-2.3639Z"/><path class="b" d="M714.8394,515.0379c-.3574-36.4745-.6302-72.9489-.879-109.4243,5.3652-.8572,8.0477-1.3605,13.413-2.5286,.2609,36.4755,.547,72.95,.9213,109.4244-5.3821,1.168-8.0731,1.6713-13.4552,2.5285Z"/><path class="b" d="M859.8028,385.4276c.1019,8.3494-1.0044,17.202-3.1195,26.1751-2.1093,8.9482-5.745,18.5083-9.8712,26.6412-4.2394,8.3558-10.2568,17.2176-16.4451,24.2325-6.2708,7.1085-14.7159,14.2966-22.9082,19.1937-8.9414,5.345-16.8077,8.3976-23.5083,9.3504-6.7028,.9539-12.2799,.0912-16.7299-2.3054-4.4512-2.3973-7.8044-6.1777-10.0562-11.2252-2.2516-5.0475-3.4174-11.2283-3.4922-18.4171-.1273-12.2273,1.6478-24.4899,5.5734-36.0885,3.765-11.1229,9.8014-21.3887,17.5327-30.2017,8.4316-9.6112,18.8616-17.6139,29.7136-23.9418,8.8698-5.1721,18.4862-10.8914,28.9163-12.6131,7.817-1.2903,13.8652,.2128,17.9917,5.0021,4.1271,4.7901,6.262,12.6536,6.4028,24.1978Zm-91.9839,68.1401c.1578,7.9028,1.5615,14.2382,4.4218,18.7658,2.8591,4.5281,7.1957,7.0406,13.0087,7.2773,5.811,.2367,13.215-2.2449,22.092-7.6595,8.0319-4.8991,16.4664-12.752,21.9735-20.3107,5.1927-7.1271,10.0237-16.5795,12.5148-25.1395,2.5591-8.7933,4.2814-18.246,3.8279-26.7731-.4408-8.2903-.9812-22.2009-9.7467-26.5033-8.8818-4.3595-21.6155,3.3207-29.2987,8.1567-7.6047,4.7867-16.2834,11.5376-22.0432,18.7497-5.6727,7.1031-9.9623,15.1046-12.7548,23.9977-2.8462,9.0643-4.184,19.9861-3.9952,29.4388Z"/></g><g><path class="b" d="M40.6826,165.5599c9.6758-4.2863,22.1161-8.4444,32.4042-5.3582,6.6568,1.9969,10.1208,7.5437,10.0169,15.9858-.0469,3.8113-.8912,7.7187-2.5331,11.7836-1.6429,4.0661-4.2634,8.1419-7.864,12.3467-3.6016,4.2061-8.3112,8.4471-14.1289,12.9199-5.8187,4.4741-12.928,9.0648-21.3243,14.0569-5.6052,3.3325-8.4078,5.0847-14.0129,8.7709-.1698,13.6685-.3393,27.337-.5085,41.0056-5.3599,4.1007-8.0398,6.2484-13.3996,10.7491,.4447-36.0324,.8897-72.0648,1.3351-108.0971,9.9344-4.9976,19.8402-9.6769,30.0151-14.1631Zm-1.3806,10.3637c-6.1621,2.8099-9.2432,4.2918-15.4053,7.42-.1759,14.1103-.3516,28.2206-.5271,42.3308,5.0052-3.1491,7.5079-4.6548,12.5131-7.5354,7.3451-4.2272,13.4783-8.1021,18.4008-11.8461,4.9214-3.7435,8.6321-7.5193,11.134-11.4809,2.5008-3.9612,3.7803-8.2495,3.8389-12.972,.0765-6.1559-2.3041-9.7964-7.1398-10.9283-4.8356-1.1311-12.4398,.2811-22.8147,5.012Z"/><path class="b" d="M206.7446,171.9207c-.0551,6.47-1.2343,12.4464-3.5367,17.8869-2.3035,5.4413-5.6912,10.1763-10.1639,14.2559-4.4738,4.0804-10.0037,7.373-16.5915,10.0522-6.5887,2.6793-14.2183,4.5762-22.8891,5.9827-8.9343,1.4493-16.7131,2.0854-23.3362,1.5948-6.6241-.4903-12.1063-1.9507-16.4452-4.6171-4.3392-2.6665-7.5665-6.395-9.679-11.2811-2.1122-4.8856-3.128-10.7454-3.0472-17.5274,.1071-8.9889,2.1411-17.4355,6.1005-25.1045,3.9583-7.668,9.9992-14.155,17.8278-19.3055,8.9969-5.919,19.4012-8.2146,29.7227-10.0254,8.7078-1.5277,20.197-.8712,28.6669,2.291,7.6882,2.8704,13.5966,7.3629,17.5503,13.4767,3.9537,6.1146,5.8953,13.5544,5.8206,22.3207Zm-91.6035,12.2764c-.0851,7.3282,1.2317,13.3305,3.9527,17.9612,2.7212,4.631,6.9412,7.6294,12.6606,9.1871,5.7194,1.5585,13.0193,1.4258,21.8976-.0031,8.9305-1.4373,16.2596-3.6645,21.9869-7.0677,5.7262-3.4024,9.9782-7.753,12.7564-13.1849,2.7771-5.431,4.198-11.7103,4.2625-18.7943,.0981-10.7777-2.9427-19.0114-9.0867-24.3219-7.7117-6.6657-19.2509-7.2559-28.9548-5.8866-8.8125,1.2435-16.2581,3.7487-22.0541,7.59-5.7971,3.8422-10.1282,8.7543-12.993,14.6207-2.8659,5.8674-4.3426,12.5325-4.4282,19.8995Z"/><path class="b" d="M263.6744,132.5287c9.4288,.604,17.2145,2.1033,23.3615,4.4074,6.1459,2.3048,10.7299,6.6123,13.752,11.165,3.0211,4.5531,4.5208,9.7382,4.4947,15.5229-.0215,4.7597-1.1405,8.4096-3.3581,10.8835-2.2177,2.4748-5.1153,4.1086-8.6924,4.9109-3.5782,.802-7.3894,2.0407-11.4354,2.5226,11.8245,16.7205,21.5048,34.8585,31.392,52.7549-6.2426-2.5242-9.364-3.7488-15.6066-6.106-8.5649-15.652-18.0025-30.6595-28.002-45.4386-9.5721-1.2443-14.3582-1.7676-23.9302-2.5665-.0848,12.4903-.1672,24.9807-.2475,37.471-5.3598-.6694-8.0397-.9601-13.3996-1.4426,.2007-28.4655,.4112-56.9308,.6352-85.3961,10.3409,.1763,20.7172,.6235,31.0365,1.3115Zm-.84,8.2441c-6.7594-.4812-10.1392-.6823-16.8986-.9924-.0781,10.7506-.153,21.5013-.2275,32.252,7.3027,.5468,10.9541,.8881,18.2568,1.6852,9.3906,1.025,16.3104,.5109,20.7592-1.8628,4.4479-2.373,6.6855-6.4689,6.7147-12.1966,.0305-6.0098-2.2946-10.4865-6.9707-13.4006-4.6771-2.9135-11.8876-4.791-21.6339-5.4848Z"/><path class="b" d="M367.0238,258.4508c-5.3914-2.5432-8.0871-3.7997-13.4785-6.2715,.0735-29.5014,.149-59.0028,.227-88.5042-11.9998-4.1964-24.0479-8.2558-36.1556-12.1305,.0151-3.6726,.0226-5.4971,.0377-9.1225,28.7362,8.8981,57.1901,18.5647,85.5667,28.5447-.004,4.2479-.006,6.3749-.0099,10.6353-11.9735-4.4615-23.9681-8.8669-35.9984-13.1732-.0646,30.0073-.1274,60.0146-.1889,90.0219Z"/><path class="b" d="M433.9433,291.3513c-5.3599-2.6886-8.0398-4.034-13.3997-6.7161,.014-35.8345,.0281-71.6689,.0422-107.5034,21.304,7.6004,42.6046,15.2068,63.9589,22.6647,.0066,4.8904,.0098,7.3304,.0164,12.2003-16.9003-6.2167-33.7634-12.5296-50.6178-18.8698v40.1274c15.8481,6.9222,31.7063,13.8174,47.6074,20.6169,.0061,4.7469,.0092,7.1156,.0153,11.8435-15.9088-7.0259-31.7712-14.1515-47.6227-21.3054,0,15.6472,0,31.2945,0,46.9417Z"/><path class="b" d="M603.5353,297.9731c.0219,10.0536-1.0498,19.0034-3.2738,26.7491-2.2252,7.7466-5.5446,14.0637-9.9601,18.8995-4.4175,4.8365-9.9043,8.4877-16.4607,9.0319-6.5574,.5438-14.1721-.9433-22.8428-4.5092-8.9337-3.6741-16.7285-8.5236-23.3818-14.3652-6.6554-5.8424-12.1808-12.4699-16.5768-19.8051-4.3964-7.3361-7.6924-15.2101-9.8843-23.6312-2.1918-8.42-3.5467-17.4171-3.3099-26.291,.2654-9.9492,1.1218-20.5413,5.7645-29.8876,3.8815-7.8138,9.7679-13.1287,17.6035-15.8742,9.8029-3.4348,20.8086-1.4426,29.6417,1.2255,10.0942,3.0491,20.3352,9.0567,28.7457,16.2672,7.1584,6.1371,14.5297,16.5927,17.7749,25.6539,4.1282,11.5266,6.1329,24.1617,6.1598,36.5364Zm-91.6031-27.9176c-.0764,9.0315,1.3515,19.5231,4.2279,28.1436,2.8392,8.509,7.0792,16.1488,12.8406,22.649,5.7607,6.4993,13.0815,11.6536,21.9603,15.2502,8.9299,3.6172,16.2389,4.37,21.923,2.3287,5.6838-2.0413,9.8762-7.424,12.5774-14.7561,2.7002-7.3312,4.2881-16.7607,3.9873-27.4429-.3936-13.9798-1.9786-28.2686-9.4655-40.7012-6.5393-10.8592-16.8881-18.8554-29.0905-22.6462-8.8723-2.7563-16.2377-3.1053-21.9916-.9006-5.7549,2.2055-10.0269,6.5361-12.8151,13.0049-2.7886,6.4698-4.0679,14.9128-4.1539,25.0706Z"/><path class="b" d="M629.4199,365.5139c-.2129-44.3467-.4171-88.6935-.6144-133.0402,5.343,.1569,8.0145,.209,13.3575,.254,.1901,40.1834,.3857,80.3669,.5881,120.5502,17.1636,.8154,34.0061,.6714,51.1383-.5587,.0341,5.5037,.051,8.2467,.085,13.7153-21.7191,1.4747-42.8929,1.0652-64.5546-.9206Z"/><path class="b" d="M713.6798,364.0053c-.3002-45.0592-.5929-90.1185-.8792-135.1778,5.343-.6696,8.0145-1.0425,13.3575-1.8706,.3005,44.8588,.6073,89.7176,.9213,134.5763-5.3599,1.127-8.0398,1.6193-13.3997,2.4721Z"/><path class="b" d="M858.0417,239.4186c.1029,8.5414-.9319,17.1026-3.1055,25.8245-2.1744,8.7236-5.538,17.3893-9.8295,25.8042-4.2354,8.3045-10.2542,16.9182-16.3766,23.8283-6.1475,6.9383-14.6211,14.0359-22.8134,18.5528-8.9019,4.9083-16.7384,7.2859-23.4115,7.1123-6.675-.1727-12.229-2.5463-16.6611-6.8696-4.4323-4.3234-7.7727-10.3858-10.0153-18.0388-2.2426-7.6519-3.3875-16.6399-3.4788-26.8437-.1128-12.6016,1.5509-25.3083,5.5492-37.2952,3.5763-10.7215,9.4694-20.6558,17.4594-28.6568,8.2255-8.2368,18.8241-14.3507,29.5903-17.7664,9.017-2.8607,18.9491-5.7022,28.797-3.8555,7.8207,1.4665,13.8077,5.2157,17.9181,11.584,4.1107,6.3689,6.2382,15.0473,6.3776,26.62Zm-91.6034,45.3872c.205,10.9901,1.5568,20.2398,4.4044,27.2583,2.848,7.0194,7.1676,11.5476,12.9557,13.3373,5.7866,1.7892,13.1698,.298,22.0009-4.3744,8.0341-4.2507,16.5537-11.8703,21.8826-19.1302,5.1974-7.0808,9.9886-16.6919,12.4623-25.1541,2.5183-8.6157,3.8889-19.1607,3.8108-28.1034-.089-10.1966-1.6764-23.0832-9.7078-30.0617-7.7655-6.7475-20.3126-4.1019-29.178-.5979-8.7209,3.4469-16.2245,7.9027-21.9517,14.0776-5.7283,6.1763-9.9279,13.7337-12.7014,22.5789-2.9159,9.299-4.1578,20.5143-3.9778,30.1698Z"/></g><g><path class="b" d="M42.3188,36.8676c10.7813-.3123,22.9329,.5171,32.269,6.0338,6.7075,3.9634,10.0782,9.9878,9.9743,17.9708-.0469,3.604-.8878,7.1021-2.5231,10.5585-1.6364,3.4573-4.2461,6.6892-7.8318,9.7654-3.5868,3.0771-8.277,5.8766-14.0706,8.4612-5.7947,2.5856-12.8745,4.7938-21.236,6.6321-5.5818,1.2272-8.3728,1.8694-13.9547,3.2144-.1698,13.5224-.3394,27.0449-.5086,40.5673-5.3376,1.9982-8.0064,3.0405-13.3441,5.2162,.4447-35.9439,.8898-71.8878,1.3352-107.8316,9.963-.2162,19.9266-.4119,29.8903-.5881Zm-1.3754,9.6422c-6.1365,.3188-9.2047,.4861-15.3412,.8376-.1759,13.9589-.3516,27.9178-.5272,41.8766,4.9845-1.0261,7.4767-1.5186,12.4612-2.4648,7.3146-1.3884,13.4224-3.1133,18.3245-5.1739,4.9011-2.0604,8.5965-4.6153,11.0881-7.7011,2.4905-3.0856,3.7649-6.8415,3.8236-11.3593,.0765-5.8889-2.2941-10.0594-7.1094-12.7113-4.8154-2.6511-12.3878-3.8407-22.7197-3.304Z"/><path class="b" d="M207.6887,69.5936c-.0552,5.4877-1.2296,10.5875-3.5227,15.2781-2.2942,4.6913-5.668,8.8274-10.1223,12.4167-4.4553,3.59-9.9625,6.5194-16.523,8.8479-6.5615,2.3286-14.1595,3.9097-22.7943,4.8309-8.8973,.9492-16.6439,1.0154-23.2394-.004-6.5966-1.0193-12.0557-2.9819-16.3765-6.01-4.3211-3.0283-7.5347-6.9921-9.6381-11.892-2.1032-4.8995-3.1144-10.5662-3.0336-16.8826,.1071-8.3718,2.1331-15.8517,6.0763-22.2017,3.9422-6.3492,9.8924-11.1876,17.7545-14.5706,8.7499-3.765,20.4407-4.9816,29.5994-4.9983,8.8802-.0162,19.9221,1.0177,28.5475,4.2202,7.6782,2.8508,13.5397,6.8102,17.4767,12.041,3.937,5.2315,5.8703,11.4891,5.7956,18.9244Zm-91.2231,5.2165c-.0852,6.74,1.2259,12.4806,3.9354,17.0865,2.7096,4.6061,6.9119,7.8489,12.6075,9.7862,5.6955,1.938,12.9651,2.349,21.8066,1.4738,8.8934-.8804,16.1923-2.7256,21.8959-5.6409,5.7025-2.9145,9.9371-6.7026,12.7039-11.3959,2.7658-4.6926,4.181-10.091,4.2455-16.1697,.0981-9.2482-2.9379-16.3315-9.0479-21.1205-7.8663-6.1656-19.0764-7.3721-28.834-7.1331-8.8036,.2157-16.1906,1.4932-21.9626,4.1505-5.7731,2.658-10.0864,6.4439-12.9396,11.3651-2.8542,4.9219-4.3251,10.8223-4.4107,17.598Z"/><path class="b" d="M264.3831,35.2428c9.3896,.0073,17.1429,.683,23.2642,2.0532,6.1203,1.3708,10.6852,3.631,13.6946,6.6972,3.0084,3.0668,4.5018,7.0087,4.4756,11.7425-.0214,3.895-1.1359,7.0885-3.3444,9.4595-2.2084,2.3716-5.0941,4.1288-8.6564,5.2621-3.5634,1.1331-7.3588,2.4256-11.3879,3.1858,11.6967,12.3964,21.4952,26.2376,31.2609,40.1589-6.2167-1.5361-9.3252-2.2875-15.5419-3.7494-8.6561-12.0799-18.0732-23.2058-27.8849-34.3569-9.5323-.2116-14.2985-.2853-23.8308-.3522-.0855,10.3738-.1679,20.7477-.2475,31.1216-5.3376-.1185-8.0064-.1581-13.3441-.1937,.199-23.6758,.4061-47.3514,.6353-71.0269,10.3024-.0104,20.6049-.0106,30.9073-.0015Zm-.8367,6.6554c-6.7313-.0171-10.097-.0216-16.8284-.021-.091,10.2252-.1365,15.5077-.2275,26.4125,7.2724,.0338,10.9086,.0704,18.181,.1766,9.3516,.1365,16.2426-.9029,20.673-3.2025,4.4294-2.299,6.6579-5.7801,6.687-10.3357,.0305-4.7799-2.2847-8.1098-6.9413-10.0682-4.6577-1.9578-11.8381-2.937-21.5438-2.9617Z"/><path class="b" d="M367.3015,127.9301c-5.369-1.4878-8.0535-2.2249-13.4226-3.6811,.0733-26.4518,.1488-52.9037,.2271-79.3555-12.0009-.5609-24.0026-1.1055-36.0052-1.6288,.0151-3.0657,.0226-4.5868,.0377-7.6053,28.4041,.4302,56.8075,.8926,85.2108,1.3684-.004,4.0872-.006,6.134-.0099,10.2337-11.9492-.5873-23.8987-1.1679-35.8487-1.7368-.0648,27.4685-.1277,54.937-.189,82.4054Z"/><path class="b" d="M433.9434,146.9884c-5.3376-1.5502-8.0064-2.3258-13.3441-3.8731,.014-35.2653,.0281-70.5305,.0424-105.7958,21.2309,.3597,42.4619,.7197,63.6929,1.0733,.0065,5.1539,.0098,7.7257,.0163,12.859-16.803-.8132-33.6052-1.6457-50.4073-2.4785,0,13.3746,0,26.7491-.0001,40.1237,15.8004,2.4898,31.6009,4.979,47.4096,7.4152,.0061,4.9927,.0092,7.4844,.0153,12.4581-15.816-2.8643-31.6205-5.7915-47.4249-8.7193,0,15.6458,0,31.2916-.0001,46.9374Z"/><path class="b" d="M602.8312,114.7534c.1005,9.8634-.8518,20.9174-3.2599,30.5786-2.2446,9.0055-5.5212,16.6898-9.9183,22.9123-4.3992,6.2236-9.8632,11.3767-16.3923,13.2954-6.5302,1.9185-14.1133,1.7392-22.748-.4398-8.8967-2.2451-16.6591-5.9258-23.2849-10.8438-6.6278-4.9185-12.1304-10.8431-16.5081-17.7167-4.3781-6.874-7.6606-14.5062-9.8434-22.9595-2.1827-8.4522-3.5289-17.7301-3.2963-27.2333,.2756-11.2626,1.6445-23.092,5.7404-33.7766,3.151-8.2197,10.3426-17.8223,17.5302-22.9483,8.7004-6.2048,19.201-7.8428,29.5184-8.4723,9.2698-.5656,21.5616,3.7767,28.6263,9.9596,8.1238,7.1097,14.1794,16.8195,17.7013,27.1439,4.4282,12.9816,5.9967,26.9589,6.1346,40.5003Zm-91.2228-10.0207c.0335,9.2785,1.235,20.3661,4.2106,29.384,2.8206,8.5485,7.0501,15.7982,12.7874,21.5746,5.7366,5.7757,13.0273,9.8099,21.8692,11.8727,8.8929,2.0747,16.1711,1.4076,21.832-2.131,5.6609-3.5373,9.8158-10.4185,12.5249-19.1633,3.1986-10.3248,3.7036-21.1575,3.9703-31.7844,.3783-15.0726-2.1566-31.5796-9.4265-45.0121-5.812-10.7389-16.8398-17.0863-28.9696-17.4353-8.7814-.2527-16.1702,1.7449-21.9001,6.0163-5.731,4.2726-9.9627,10.4099-12.7617,18.2535-3.0806,8.6326-4.1686,19.5099-4.1365,28.425Z"/><path class="b" d="M628.6096,187.6815c-.2122-49.2761-.4164-98.5523-.6141-147.8285,5.3208-.0029,7.9812-.0053,13.3019-.0125,.1906,44.3468,.3862,88.6937,.588,133.0405,16.9836-.0908,33.9813-.5823,50.9263-1.7696,.0341,5.9486,.051,8.9142,.085,14.8277-21.444,1.3662-42.8035,1.9012-64.287,1.7424Z"/><path class="b" d="M712.5203,184.2047c-.2998-48.2097-.5925-96.4195-.8792-144.6293,5.3208-.0343,7.9812-.0529,13.3019-.0932,.3009,47.7264,.6077,95.4527,.9213,143.1791-5.3375,.6786-8.0063,.9864-13.344,1.5434Z"/><path class="b" d="M856.2809,93.0594c-.0426,8.416-.9272,16.6111-3.0913,24.3656-2.1652,7.7558-5.4272,14.988-9.788,21.7047-4.3628,6.7184-9.7987,12.7363-16.3082,17.8555-6.5105,5.1195-14.0837,9.0959-22.7185,11.5658-8.8969,2.5449-16.6691,2.9285-23.3146,1.1874-6.6476-1.7406-12.1785-5.3579-16.5927-10.7591-4.4142-5.4012-7.7155-12.4137-9.9744-20.8185-2.4397-9.0771-3.4634-19.5449-3.4652-28.85-.0026-12.7031,1.6917-25.968,5.525-38.0146,2.8711-9.0226,9.8846-19.7977,17.386-25.6337,8.5043-6.6163,19.1824-8.3599,29.4669-9.1054,8.9874-.6515,20.8989,2.3755,28.6774,7.3088,7.6541,4.8544,13.7135,11.4711,17.8447,19.6475,4.2798,8.4706,6.3999,20.2265,6.3528,29.546Zm-91.2231,14.9697c-.2435,9.3846,1.1631,20.4739,4.3871,29.4286,2.851,7.9184,7.1384,13.6113,12.9026,16.8807,5.7632,3.2689,13.0679,3.7603,21.9099,1.4483,8.8929-2.3253,16.1577-6.5935,21.7915-12.3448,5.6339-5.7503,9.7698-12.6849,12.4099-20.708,2.6392-8.0218,3.8331-16.9185,3.7938-26.7123-.0477-11.9099-2.334-24.7318-9.6693-34.4004-6.7457-8.8915-18.2261-12.3275-29.0573-11.7856-8.7834,.4394-16.1569,2.8051-21.8601,7.5617-5.7043,4.7579-9.897,11.5147-12.6479,20.0835-3.1824,9.9124-3.6941,20.2915-3.9602,30.5483Z"/></g></svg>